<svg xmlns="http://www.w3.org/2000/svg" xmlns:xlink="http://www.w3.org/1999/xlink" width="58px" height="79px" viewBox="0 0 58 79" version="1.1">
    <!-- Generator: Sketch 46.2 (44496) - http://www.bohemiancoding.com/sketch -->
    <title>Icons / Targets / Target 06</title>
    <desc>Created with Sketch.</desc>
    <defs/>
    <g id="-" stroke="none" stroke-width="1" fill="none" fill-rule="evenodd">
        <g id="Icons-/-Targets-/-Target-06" fill="#FFFFFE">
            <path d="M53.8637889,12.2168546 C52.3508722,11.5525816 50.4329556,11.7918694 48.5917056,12.5363205 C41.6646222,15.3350742 36.9504556,16.3416617 29.6646222,14.067181 C25.0775389,12.6356083 20.7842056,9.63661721 15.7104556,11.4624332 C12.3425389,12.6705045 9.20503889,13.8224926 5.39837223,13.792997 L3.19878889,2.5527003 L55.4450389,2.5527003 L53.8637889,12.2168546 Z M36.1550389,45.5958457 C36.1550389,45.5958457 33.6187889,48.194362 29.4933722,47.9127003 C25.3579556,48.194362 22.8246222,45.5958457 22.8246222,45.5958457 C18.6421222,41.4290801 20.1346222,36.2461721 21.5904556,33.5683086 C22.4892056,31.8903858 28.9154556,22.2694362 29.4679556,21.451454 L29.4679556,21.3862315 C29.4679556,21.3862315 29.4779556,21.3991098 29.4933722,21.4169733 L29.5154556,21.3862315 L29.5154556,21.451454 C30.0533722,22.2694362 36.4892056,31.8903858 37.3883722,33.5683086 C38.8467056,36.2461721 40.3337889,41.4290801 36.1550389,45.5958457 L36.1550389,45.5958457 Z M57.7304556,0.31768546 C57.5996222,0.176439169 57.4246222,0.0975074184 57.2254556,0.0975074184 L1.40045556,0.0975074184 C1.20712223,0.0975074184 1.02962223,0.176439169 0.898788894,0.31768546 C0.77670556,0.47305638 0.72795556,0.664985163 0.75920556,0.844451039 L10.1383722,57.4019585 C10.1900389,57.714362 10.4637889,57.9461721 10.7821222,57.9461721 L22.2925389,57.9461721 L23.0796222,67.1579228 L18.2362889,67.1641543 L29.5075389,78.4007122 L40.8050389,67.1379822 L35.9625389,67.1433828 L36.7487889,57.9461721 L48.4629556,57.9461721 C48.7858722,57.9461721 49.0554556,57.714362 49.1033722,57.3911573 L57.8787889,0.844451039 C57.9083722,0.650029674 57.8508722,0.464332344 57.7304556,0.31768546 L57.7304556,0.31768546 Z" id="Fill-22"/>
        </g>
    </g>
</svg>