<svg xmlns="http://www.w3.org/2000/svg" xmlns:xlink="http://www.w3.org/1999/xlink" width="119px" height="53px" viewBox="0 0 119 53" version="1.1">
    <!-- Generator: Sketch 46.2 (44496) - http://www.bohemiancoding.com/sketch -->
    <title>Icons / Targets / Target 01</title>
    <desc>Created with Sketch.</desc>
    <defs/>
    <g id="-" stroke="none" stroke-width="1" fill="none" fill-rule="evenodd">
        <g id="Icons-/-Targets-/-Target-01" fill="#FFFFFE">
            <path d="M103.942208,4.62783333 C103.942208,2.18241667 105.925542,0.202416667 108.368458,0.202416667 C110.808458,0.202416667 112.785958,2.18241667 112.785958,4.62783333 C112.785958,7.07075 110.808458,9.05241667 108.368458,9.05241667 C105.925542,9.05241667 103.942208,7.07075 103.942208,4.62783333" id="Fill-22"/>
            <path d="M6.289625,4.62783333 C6.289625,2.18241667 8.27295833,0.202416667 10.7162917,0.202416667 C13.155875,0.202416667 15.133375,2.18241667 15.133375,4.62783333 C15.133375,7.07075 13.155875,9.05241667 10.7162917,9.05241667 C8.27295833,9.05241667 6.289625,7.07075 6.289625,4.62783333" id="Fill-24"/>
            <path d="M113.532083,10.7582083 C116.533333,11.0290417 118.88625,13.553625 118.88625,16.6332083 L118.88625,18.1027917 L118.88625,18.7457083 L118.88625,28.8952917 C118.88625,29.838625 118.117917,30.6094583 117.172917,30.6094583 C116.221667,30.6094583 115.456667,29.838625 115.456667,28.8952917 L115.456667,18.3632083 C115.456667,17.968625 115.342917,17.433625 114.62,17.433625 C114.12125,17.433625 114.017083,17.9627917 113.998333,18.299875 L113.998333,49.8669583 C113.998333,51.223625 112.899583,52.3302917 111.536667,52.3302917 C110.172083,52.3302917 109.0675,51.223625 109.0675,49.8669583 L109.0675,31.676125 C109.06125,31.4752917 108.994167,30.953625 108.368333,30.953625 L108.36625,30.953625 C107.737917,30.953625 107.660417,31.4752917 107.654167,31.676125 L107.654167,49.8669583 C107.654167,51.223625 106.55625,52.3302917 105.192917,52.3302917 C103.826667,52.3302917 102.727917,51.223625 102.727917,49.8669583 L102.727917,18.299875 C102.711667,17.9627917 102.604167,17.433625 102.107917,17.433625 C101.382083,17.433625 101.272083,17.968625 101.272083,18.3632083 L101.272083,28.8952917 C101.272083,29.838625 100.50375,30.6094583 99.5558333,30.6094583 C98.6079167,30.6094583 97.84375,29.838625 97.84375,28.8952917 L97.84375,18.7457083 L97.84375,18.1027917 L97.84375,16.6332083 C97.84375,13.553625 100.197917,11.0290417 103.204167,10.7582083 C103.301667,10.7452917 103.41,10.7307083 103.527917,10.7307083 L108.368333,10.7307083 L113.195833,10.7307083 C113.322917,10.7307083 113.42625,10.7452917 113.532083,10.7582083" id="Fill-26"/>
            <path d="M77.6360833,6.95125 C77.6360833,4.6375 75.7660833,2.75791667 73.4515,2.75791667 C71.13525,2.75791667 69.26025,4.6375 69.26025,6.95125 C69.26025,9.26583333 71.13525,11.1408333 73.4515,11.1408333 C75.7660833,11.1408333 77.6360833,9.26583333 77.6360833,6.95125" id="Fill-28"/>
            <path d="M65.0099167,16.4401667 L61.5278333,27.7764167 C61.5278333,27.7764167 60.9065833,29.8539167 62.6703333,30.3726667 C64.4240833,30.8926667 64.9561667,28.8635 64.9561667,28.8635 L67.7645,19.40225 C67.7645,19.40225 67.917,18.67475 68.4636667,18.8326667 C69.012,18.9889167 68.8061667,19.7676667 68.8061667,19.7676667 L63.9195,37.49725 L68.4636667,37.49725 L68.4636667,50.1968333 C68.4636667,51.3976667 69.4428333,52.376 70.6486667,52.376 C71.85325,52.376 72.8274167,51.3976667 72.8274167,50.1968333 L72.8274167,37.49725 L73.45075,37.49725 L74.0674167,37.49725 L74.0674167,50.1968333 C74.0674167,51.3976667 75.04075,52.376 76.2486667,52.376 C77.4578333,52.376 78.4345,51.3976667 78.4345,50.1968333 L78.4345,37.49725 L82.9778333,37.49725 L78.0940833,19.7676667 C78.0940833,19.7676667 77.88825,18.9889167 78.4345,18.8326667 C78.982,18.67475 79.1340833,19.40225 79.1340833,19.40225 L81.942,28.8635 C81.942,28.8635 82.47575,30.8926667 84.227,30.3726667 C85.9936667,29.8539167 85.3703333,27.7764167 85.3703333,27.7764167 L81.88825,16.4401667 C81.88825,16.4401667 80.6436667,13.1630833 77.88825,13.1630833 L73.45075,13.1630833 L69.012,13.1630833 C66.2565833,13.1630833 65.0099167,16.4401667 65.0099167,16.4401667" id="Fill-30"/>
            <path d="M52.547375,6.95125 C52.547375,4.6375 50.6740417,2.75791667 48.3602917,2.75791667 C46.044875,2.75791667 44.171125,4.6375 44.171125,6.95125 C44.171125,9.26583333 46.044875,11.1408333 48.3602917,11.1408333 C50.6740417,11.1408333 52.547375,9.26583333 52.547375,6.95125" id="Fill-32"/>
            <path d="M39.9192083,16.4401667 L36.4387917,27.7764167 C36.4387917,27.7764167 35.8162917,29.8539167 37.5800417,30.3726667 C39.3329583,30.8926667 39.865875,28.8635 39.865875,28.8635 L42.6737917,19.40225 C42.6737917,19.40225 42.8262917,18.67475 43.3729583,18.8326667 C43.9212917,18.9889167 43.7142083,19.7676667 43.7142083,19.7676667 L38.8287917,37.49725 L43.3729583,37.49725 L43.3729583,50.1968333 C43.3729583,51.3976667 44.354625,52.376 45.5575417,52.376 C46.7642083,52.376 47.738375,51.3976667 47.738375,50.1968333 L47.738375,37.49725 L48.3642083,37.49725 L48.9787917,37.49725 L48.9787917,50.1968333 C48.9787917,51.3976667 49.949625,52.376 51.1604583,52.376 C52.3700417,52.376 53.3437917,51.3976667 53.3437917,50.1968333 L53.3437917,37.49725 L57.888375,37.49725 L53.005875,19.7676667 C53.005875,19.7676667 52.798375,18.9889167 53.3437917,18.8326667 C53.8900417,18.67475 54.0442083,19.40225 54.0442083,19.40225 L56.8500417,28.8635 C56.8500417,28.8635 57.3842083,30.8926667 59.1362917,30.3726667 C60.9025417,29.8539167 60.278375,27.7764167 60.278375,27.7764167 L56.7967083,16.4401667 C56.7967083,16.4401667 55.5550417,13.1630833 52.798375,13.1630833 L48.3642083,13.1630833 L43.9212917,13.1630833 C41.1679583,13.1630833 39.9192083,16.4401667 39.9192083,16.4401667" id="Fill-34"/>
            <path d="M91.70425,30.3960833 C93.633,30.3960833 95.1896667,28.83525 95.1896667,26.9056667 C95.1896667,24.9785833 93.633,23.42275 91.70425,23.42275 C89.7755,23.42275 88.2171667,24.9785833 88.2171667,26.9056667 C88.2171667,28.83525 89.7755,30.3960833 91.70425,30.3960833" id="Fill-36"/>
            <path d="M83.344875,41.2277917 C83.1740417,41.636125 83.034875,42.5007083 83.8527917,42.877375 C84.8127917,43.318625 85.3469583,42.3907083 85.3469583,42.3907083 L87.2427917,36.3457083 C87.2427917,36.3457083 87.5719583,35.941125 87.5719583,36.3594583 L87.5719583,50.5890417 L87.5807083,50.5890417 C87.5807083,51.5802917 88.377375,52.378625 89.3694583,52.378625 C90.3590417,52.378625 91.157375,51.5802917 91.157375,50.5890417 L91.157375,44.973625 C91.157375,44.973625 91.0540417,44.1802917 91.693625,44.1802917 C92.3332083,44.1802917 92.234875,44.973625 92.234875,44.973625 L92.234875,50.5890417 C92.234875,51.5802917 93.0382083,52.378625 94.0269583,52.378625 C95.0140417,52.378625 95.8194583,51.5802917 95.8194583,50.5890417 L95.8194583,36.3594583 C95.8194583,35.941125 96.041125,36.239875 96.041125,36.239875 L97.526125,40.3790417 C97.526125,40.3790417 98.1715417,42.228625 98.3702917,42.3102917 C99.039875,42.5915417 99.8144583,42.2719583 100.097792,41.5957083 C100.283208,41.1544583 100.212375,40.681125 99.956125,40.323625 L99.9690417,40.309875 C99.926125,40.1765417 97.7482083,34.836125 97.4919583,34.0865417 C96.7057083,31.7902917 95.2752917,31.8102917 93.8965417,31.772375 C92.5182083,31.739875 91.693625,31.772375 91.693625,31.772375 C91.693625,31.772375 90.8132083,31.7365417 88.9927917,31.7902917 C87.1769583,31.8477917 86.6032083,32.7790417 84.5982083,37.9352917 C84.312375,38.6782083 83.344875,41.081125 83.3319583,41.2252917 L83.344875,41.2277917 Z" id="Fill-38"/>
            <path d="M5.54420833,10.7582083 C2.54420833,11.0290417 0.188791667,13.553625 0.188791667,16.6332083 L0.188791667,18.1027917 L0.188791667,18.7457083 L0.188791667,28.8952917 C0.188791667,29.838625 0.957541667,30.6094583 1.90545833,30.6094583 C2.853375,30.6094583 3.62045833,29.838625 3.62045833,28.8952917 L3.62045833,18.3632083 C3.62045833,17.968625 3.734625,17.433625 4.457125,17.433625 C4.955875,17.433625 5.059625,17.9627917 5.080875,18.299875 L5.080875,49.8669583 C5.080875,51.223625 6.17795833,52.3302917 7.542125,52.3302917 C8.90420833,52.3302917 10.005875,51.223625 10.005875,49.8669583 L10.005875,31.676125 C10.0162917,31.4752917 10.0829583,30.953625 10.7092083,30.953625 L10.710875,30.953625 C11.3392083,30.953625 11.415875,31.4752917 11.4212917,31.676125 L11.4212917,49.8669583 C11.4212917,51.223625 12.5212917,52.3302917 13.8842083,52.3302917 C15.2492083,52.3302917 16.3479583,51.223625 16.3479583,49.8669583 L16.3479583,18.299875 C16.3625417,17.9627917 16.474625,17.433625 16.9692083,17.433625 C17.6954583,17.433625 17.8042083,17.968625 17.8042083,18.3632083 L17.8042083,28.8952917 C17.8042083,29.838625 18.573375,30.6094583 19.5204583,30.6094583 C20.4679583,30.6094583 21.2337917,29.838625 21.2337917,28.8952917 L21.2337917,18.7457083 L21.2337917,18.1027917 L21.2337917,16.6332083 C21.2337917,13.553625 18.8804583,11.0290417 15.8742083,10.7582083 C15.774625,10.7452917 15.6692083,10.7307083 15.549625,10.7307083 L10.7092083,10.7307083 L5.882125,10.7307083 C5.754625,10.7307083 5.64920833,10.7452917 5.54420833,10.7582083" id="Fill-40"/>
            <path d="M23.3339167,28.5690833 C23.1051667,28.212 22.7118333,27.97325 22.2580833,27.97325 C21.5576667,27.97325 20.9876667,28.54325 20.9876667,29.2403333 C20.9876667,29.44325 21.1118333,29.7986667 21.1118333,29.7986667 L24.62725,36.1595 C24.62725,36.1595 24.8418333,36.59825 24.8418333,36.99825 L24.8418333,50.65825 L24.8489167,50.65825 C24.8489167,51.6111667 25.6176667,52.3761667 26.5685,52.3761667 C27.5164167,52.3761667 28.2818333,51.6111667 28.2818333,50.65825 L28.2818333,45.2674167 C28.2818333,45.2674167 28.18475,44.5040833 28.8005833,44.5040833 C29.4143333,44.5040833 29.3185,45.2674167 29.3185,45.2674167 L29.3185,50.65825 C29.3185,51.6111667 30.0893333,52.3761667 31.0385,52.3761667 C31.9868333,52.3761667 32.7593333,51.6111667 32.7593333,50.65825 L32.7593333,36.99825 C32.7593333,36.59825 32.97225,36.1595 32.97225,36.1595 L36.2214167,30.287 C36.2214167,30.287 36.6193333,29.44325 36.6193333,29.2403333 C36.6193333,28.54325 36.051,27.97325 35.3480833,27.97325 C34.8880833,27.97325 34.4951667,28.212 34.2726667,28.5690833 L34.2580833,28.5615833 C34.156,28.6495 32.5289167,31.5474167 31.9918333,32.0849167 C31.4235,32.657 30.9151667,32.59325 30.9151667,32.59325 L28.8005833,32.59325 L26.6905833,32.59325 C26.6905833,32.59325 26.1785,32.657 25.6130833,32.0849167 C25.0689167,31.5474167 23.4485,28.6495 23.34475,28.5615833 L23.3339167,28.5690833 Z" id="Fill-42"/>
            <path d="M28.800625,30.3960833 C30.729375,30.3960833 32.2852083,28.83525 32.2852083,26.9056667 C32.2852083,24.9785833 30.729375,23.42275 28.800625,23.42275 C26.8727083,23.42275 25.315625,24.9785833 25.315625,26.9056667 C25.315625,28.83525 26.8727083,30.3960833 28.800625,30.3960833" id="Fill-44"/>
            <polygon id="Fill-46" points="28.8063333 35.2902917 32.7471667 38.1644583 34.6196667 45.059875 28.8063333 45.059875 22.9884167 45.059875 24.8655 38.1644583"/>
        </g>
    </g>
</svg>