<svg xmlns="http://www.w3.org/2000/svg" xmlns:xlink="http://www.w3.org/1999/xlink" width="85px" height="73px" viewBox="0 0 85 73" version="1.1">
    <!-- Generator: Sketch 46.2 (44496) - http://www.bohemiancoding.com/sketch -->
    <title>Icons / Targets / Target 02</title>
    <desc>Created with Sketch.</desc>
    <defs/>
    <g id="-" stroke="none" stroke-width="1" fill="none" fill-rule="evenodd">
        <g id="Icons-/-Targets-/-Target-02" fill="#FFFFFE">
            <path d="M28.8392083,69.0634583 L28.8392083,71.2772083 C28.8375417,71.292625 28.8312917,71.311375 28.8312917,71.3272083 C28.8312917,71.346375 28.8375417,71.363875 28.8392083,71.380125 C28.8625417,71.927625 29.309625,72.3642917 29.8612917,72.3747083 C29.8675417,72.3747083 29.873375,72.3784583 29.880875,72.3784583 C29.8887917,72.3784583 29.898375,72.3747083 29.9067083,72.3747083 L55.8825417,72.3747083 C55.889625,72.3747083 55.8967083,72.3784583 55.904625,72.3784583 C55.912125,72.3784583 55.9200417,72.3747083 55.9275417,72.3747083 C56.494625,72.3642917 56.948375,71.9022083 56.952125,71.335125 C56.952125,71.3330417 56.9554583,71.331375 56.9554583,71.3272083 C56.9554583,71.3272083 56.952125,71.3234583 56.952125,71.3197083 L56.952125,68.813875 C71.574625,64.0205417 82.5292083,52.1684583 84.9379583,37.7255417 C84.9442083,37.695125 84.9475417,37.666375 84.9525417,37.6397083 C84.9612917,37.588875 84.967125,37.5434583 84.967125,37.4942917 C84.967125,36.9130417 84.4987917,36.4442917 83.917125,36.4442917 L1.623375,36.4442917 L1.12795833,36.4442917 C0.544208333,36.4442917 0.0754583333,36.9130417 0.0754583333,37.4942917 L0.129208333,37.966375 C2.66004167,52.547625 13.9154583,64.465125 28.8392083,69.0634583" id="Fill-22"/>
            <path d="M56.9279583,1.10979167 C56.5867083,1.595625 48.5879583,13.110625 57.1067083,22.4222917 C61.013375,26.6960417 60.6742083,30.4664583 59.5587917,33.0135417 L65.023375,33.0135417 C66.129625,29.2535417 65.6729583,24.5377083 61.237125,19.6902083 C54.9604583,12.8289583 61.317125,3.554375 61.4125417,3.41104167 C62.1625417,2.353125 61.7604583,0.989375 60.5262917,0.353125 C59.2867083,-0.279375 57.6804583,0.0585416667 56.9279583,1.10979167" id="Fill-24"/>
            <path d="M43.0896667,33.0136667 L48.5559167,33.0136667 C49.6609167,29.252 49.20175,24.5378333 44.7659167,19.6899167 C38.4875833,12.8278333 44.83925,3.55825 44.9396667,3.40616667 C45.6850833,2.35325 45.2900833,0.991166667 44.0513333,0.352833333 C42.8163333,-0.277583333 41.20675,0.0574166667 40.458,1.10991667 C40.1150833,1.59325 32.10925,13.1103333 40.6355,22.4224167 C44.5421667,26.697 44.20175,30.4690833 43.0896667,33.0136667" id="Fill-26"/>
            <path d="M23.9844583,1.10979167 C23.638625,1.595625 15.6402917,13.110625 24.1607083,22.4222917 C28.0690417,26.6977083 27.731125,30.4689583 26.6182083,33.0135417 L32.0827917,33.0135417 C33.187375,29.2552083 32.7307083,24.5385417 28.2907083,19.6902083 C22.012375,12.8289583 28.3690417,3.554375 28.469875,3.40729167 C29.2119583,2.353125 28.8165417,0.989375 27.5769583,0.353125 C26.342375,-0.283125 24.7340417,0.056875 23.9844583,1.10979167" id="Fill-28"/>
        </g>
    </g>
</svg>