<svg xmlns="http://www.w3.org/2000/svg" xmlns:xlink="http://www.w3.org/1999/xlink" width="81px" height="81px" viewBox="0 0 81 81" version="1.1">
    <!-- Generator: Sketch 46.2 (44496) - http://www.bohemiancoding.com/sketch -->
    <title>Icons / Targets / Target 07</title>
    <desc>Created with Sketch.</desc>
    <defs/>
    <g id="-" stroke="none" stroke-width="1" fill="none" fill-rule="evenodd">
        <g id="Icons-/-Targets-/-Target-07" fill="#FFFFFE">
            <path d="M40.4707083,52.522375 C33.8269583,52.522375 28.4402917,47.137375 28.4402917,40.4927917 C28.4402917,35.0915417 31.9957083,30.5240417 36.8952917,29.001125 L36.8952917,33.4807083 C34.3452917,34.7832083 32.594875,37.4302917 32.594875,40.4927917 C32.594875,44.842375 36.119875,48.3677917 40.4707083,48.3677917 C44.8215417,48.3677917 48.346125,44.842375 48.346125,40.4927917 C48.346125,37.4215417 46.5877917,34.769875 44.0252917,33.469875 L44.0252917,28.9957083 C48.934875,30.5115417 52.5027917,35.083625 52.5027917,40.4927917 C52.5027917,47.137375 47.116125,52.522375 40.4707083,52.522375 L40.4707083,52.522375 Z M38.7544583,26.6769583 C38.7544583,25.9065417 39.5269583,25.0594583 40.4765417,25.0594583 C41.4232083,25.0594583 42.189875,25.9065417 42.189875,26.6769583 L42.189875,34.618625 C42.189875,35.3844583 41.4232083,36.223625 40.4765417,36.223625 C39.5269583,36.223625 38.7544583,35.3844583 38.7544583,34.618625 L38.7544583,26.6769583 Z M40.4665417,17.5390417 C27.6932083,17.5390417 17.3382083,27.894875 17.3382083,40.6694583 C17.3382083,53.4494583 27.6932083,63.8032083 40.4665417,63.8032083 C53.239875,63.8032083 63.5952917,53.4494583 63.5952917,40.6694583 C63.5952917,27.894875 53.239875,17.5390417 40.4665417,17.5390417 L40.4665417,17.5390417 Z" id="Fill-22"/>
            <path d="M13.915125,40.4675417 C13.915125,39.418375 12.9859583,38.5692083 12.137625,38.5692083 L2.00845833,38.5692083 C1.15429167,38.5692083 0.216791667,39.418375 0.216791667,40.4675417 C0.216791667,41.5187917 1.15429167,42.3729583 2.00845833,42.3729583 L12.137625,42.3729583 C12.9859583,42.3729583 13.915125,41.5187917 13.915125,40.4675417" id="Fill-24"/>
            <path d="M80.7274583,40.4675417 C80.7274583,39.418375 79.7987083,38.5692083 78.9495417,38.5692083 L68.8207917,38.5692083 C67.9674583,38.5692083 67.0299583,39.418375 67.0299583,40.4675417 C67.0299583,41.5187917 67.9674583,42.3729583 68.8207917,42.3729583 L78.9495417,42.3729583 C79.7987083,42.3729583 80.7274583,41.5187917 80.7274583,40.4675417" id="Fill-26"/>
            <path d="M40.4764167,80.7250833 C41.5235,80.7250833 42.3739167,79.7963333 42.3739167,78.9475833 L42.3739167,68.8196667 C42.3739167,67.9663333 41.5235,67.0275833 40.4764167,67.0275833 C39.426,67.0275833 38.5693333,67.9663333 38.5693333,68.8196667 L38.5693333,78.9475833 C38.5693333,79.7963333 39.426,80.7250833 40.4764167,80.7250833" id="Fill-28"/>
            <path d="M75.412125,60.4630417 C75.932125,59.5542917 75.5479583,58.3542917 74.8125417,57.9330417 L66.0212917,52.9022083 C65.2804583,52.477625 64.043375,52.7497083 63.5237917,53.660125 C63.0017083,54.5709583 63.3904583,55.780125 64.132125,56.2030417 L72.9229583,61.2342917 C73.6592083,61.6555417 74.8887917,61.3755417 75.412125,60.4630417" id="Fill-30"/>
            <path d="M20.4804583,75.4109583 C21.389625,75.9305417 22.588375,75.5467917 23.0100417,74.8105417 L28.040875,66.020125 C28.4650417,65.278875 28.193375,64.041375 27.283375,63.521375 C26.3725417,62.9992917 25.1629583,63.388875 24.7400417,64.1297083 L19.7087917,72.9205417 C19.2875417,73.656375 19.5679583,74.888875 20.4804583,75.4109583" id="Fill-32"/>
            <path d="M60.5419167,75.3654167 C61.4510833,74.8429167 61.7248333,73.61375 61.3023333,72.8795833 L56.2531667,64.0979167 C55.8260833,63.3579167 54.6231667,62.96875 53.7131667,63.49125 C52.8015,64.015 52.529,65.2533333 52.9569167,65.9954167 L58.0048333,74.7758333 C58.4273333,75.5108333 59.63025,75.8895833 60.5419167,75.3654167" id="Fill-34"/>
            <path d="M5.578125,60.5415833 C6.10020833,61.4499167 7.32854167,61.7236667 8.06395833,61.3003333 L16.8439583,56.2511667 C17.5852083,55.8261667 17.9760417,54.622 17.4510417,53.7128333 C16.929375,52.8011667 15.689375,52.5286667 14.9497917,52.9536667 L6.16895833,58.0024167 C5.43354167,58.4249167 5.054375,59.6299167 5.578125,60.5415833" id="Fill-36"/>
            <path d="M40.4764167,13.914 C41.5235,13.914 42.3739167,12.98525 42.3739167,12.1373333 L42.3739167,2.00733333 C42.3739167,1.15275 41.5235,0.2165 40.4764167,0.2165 C39.426,0.2165 38.5693333,1.15275 38.5693333,2.00733333 L38.5693333,12.1373333 C38.5693333,12.98525 39.426,13.914 40.4764167,13.914" id="Fill-38"/>
            <path d="M17.4244583,27.276625 C17.946125,26.365375 17.562375,25.1674583 16.824875,24.7462083 L8.033625,19.7149583 C7.29279167,19.2899583 6.05695833,19.561625 5.536125,20.471625 C5.013625,21.384125 5.403625,22.5907917 6.14529167,23.0162083 L14.936125,28.0474583 C15.6719583,28.4687083 16.9027917,28.189125 17.4244583,27.276625" id="Fill-40"/>
            <path d="M53.6673333,17.4243333 C54.5773333,17.9439167 55.7748333,17.5601667 56.1969167,16.8251667 L61.22775,8.0335 C61.65275,7.29141667 61.3810833,6.05558333 60.4710833,5.53475 C59.5594167,5.01183333 58.3506667,5.40266667 57.9265,6.14391667 L52.89525,14.9339167 C52.474,15.6714167 52.7535833,16.90225 53.6673333,17.4243333" id="Fill-42"/>
            <path d="M27.2366667,17.4467083 C28.1458333,16.9242083 28.4195833,15.6954583 27.9958333,14.9600417 L22.9466667,6.178375 C22.5195833,5.43795833 21.3175,5.05004167 20.4079167,5.57295833 C19.495,6.095875 19.2229167,7.33545833 19.6504167,8.07545833 L24.6983333,16.8550417 C25.1229167,17.5904583 26.32375,17.970875 27.2366667,17.4467083" id="Fill-44"/>
            <path d="M63.4964167,27.2355 C64.0189167,28.1434167 65.24725,28.41675 65.9830833,27.99425 L74.7626667,22.9455 C75.5039167,22.5196667 75.89475,21.3155 75.3718333,20.4063333 C74.8468333,19.4955 73.6093333,19.2221667 72.8680833,19.648 L64.0876667,24.69675 C63.35225,25.1200833 62.9718333,26.3246667 63.4964167,27.2355" id="Fill-46"/>
        </g>
    </g>
</svg>