<svg xmlns="http://www.w3.org/2000/svg" xmlns:xlink="http://www.w3.org/1999/xlink" width="63px" height="84px" viewBox="0 0 63 84" version="1.1">
    <!-- Generator: Sketch 46.2 (44496) - http://www.bohemiancoding.com/sketch -->
    <title>Icons / Targets / Target 05</title>
    <desc>Created with Sketch.</desc>
    <defs/>
    <g id="-" stroke="none" stroke-width="1" fill="none" fill-rule="evenodd">
        <g id="Icons-/-Targets-/-Target-05" fill="#FFFFFE">
            <path d="M25.9483333,54.44625 C15.65375,54.44625 7.28041667,46.0704167 7.28041667,35.77625 C7.28041667,25.48125 15.65375,17.1058333 25.9483333,17.1058333 C36.2441667,17.1058333 44.6195833,25.48125 44.6195833,35.77625 C44.6195833,46.0704167 36.2441667,54.44625 25.9483333,54.44625 M61.8041667,0.333333333 L42.4379167,0.333333333 C42.3058333,0.333333333 42.1916667,0.443333333 42.1916667,0.580416667 L42.1916667,7.01583333 C42.1916667,7.15375 42.3058333,7.26333333 42.4379167,7.26333333 L50.1495833,7.26333333 L41.5870833,15.8275 C37.2741667,12.4391667 31.8470833,10.41125 25.9483333,10.41125 C11.96375,10.41125 0.583333333,21.7895833 0.583333333,35.77625 C0.583333333,48.65375 10.23125,59.3104167 22.675,60.9225 L22.675,68.3379167 L15.03625,68.3379167 C14.8941667,68.3379167 14.78625,68.4475 14.78625,68.5825 L14.78625,75.4804167 C14.78625,75.6179167 14.8941667,75.7266667 15.03625,75.7266667 L22.675,75.7266667 L22.675,83.025 C22.675,83.16125 22.7841667,83.2708333 22.9204167,83.2708333 L29.8145833,83.2708333 C29.9520833,83.2708333 30.0645833,83.16125 30.0645833,83.025 L30.0645833,75.7266667 L37.7020833,75.7266667 C37.8383333,75.7266667 37.9479167,75.6179167 37.9479167,75.4804167 L37.9479167,68.5825 C37.9479167,68.4475 37.8383333,68.3379167 37.7020833,68.3379167 L30.0645833,68.3379167 L30.0645833,60.8020833 C42.0995833,58.8279167 51.3125,48.36125 51.3125,35.77625 C51.3125,30.3479167 49.5945833,25.31625 46.68,21.1875 L55.1208333,12.745 L55.1208333,19.9479167 C55.1208333,20.08375 55.23375,20.1933333 55.3695833,20.1933333 L61.8041667,20.1933333 C61.9420833,20.1933333 62.0554167,20.08375 62.0554167,19.9479167 L62.0554167,0.580416667 C62.0554167,0.443333333 61.9420833,0.333333333 61.8041667,0.333333333" id="Fill-22"/>
            <path d="M37.225,28.25 L14.5791667,28.25 C14.4433333,28.25 14.3333333,28.3504167 14.3333333,28.4704167 L14.3333333,33.9529167 C14.3333333,34.08125 14.4433333,34.1775 14.5791667,34.1775 L37.225,34.1775 C37.3658333,34.1775 37.4758333,34.08125 37.4758333,33.9529167 L37.4758333,28.4704167 C37.4758333,28.3504167 37.3658333,28.25 37.225,28.25" id="Fill-24"/>
            <path d="M37.225,37.8333333 L14.5791667,37.8333333 C14.4433333,37.8333333 14.3333333,37.9366667 14.3333333,38.0616667 L14.3333333,43.54375 C14.3333333,43.6666667 14.4433333,43.7645833 14.5791667,43.7645833 L37.225,43.7645833 C37.3658333,43.7645833 37.4758333,43.6666667 37.4758333,43.54375 L37.4758333,38.0616667 C37.4758333,37.9366667 37.3658333,37.8333333 37.225,37.8333333" id="Fill-26"/>
        </g>
    </g>
</svg>