<svg xmlns="http://www.w3.org/2000/svg" xmlns:xlink="http://www.w3.org/1999/xlink" width="108px" height="76px" viewBox="0 0 108 76" version="1.1">
    <!-- Generator: Sketch 46.2 (44496) - http://www.bohemiancoding.com/sketch -->
    <title>Icons / Targets / Target 03</title>
    <desc>Created with Sketch.</desc>
    <defs/>
    <g id="-" stroke="none" stroke-width="1" fill="none" fill-rule="evenodd">
        <g id="Icons-/-Targets-/-Target-03" fill="#FFFFFE">
            <path d="M107.986667,40.383625 C107.986667,35.8852917 105.100833,32.238625 100.729167,32.238625 C98.54375,32.238625 95.9066667,34.6319583 94.4745833,36.104875 C93.0429167,34.6302917 90.58125,32.2344583 88.3941667,32.2344583 C84.0225,32.2344583 80.95875,35.8819583 80.95875,40.381125 C80.95875,42.6307083 81.845,44.6665417 83.2783333,46.1415417 L94.4845833,57.3682083 L105.674583,46.1544583 L105.66625,46.1457083 C107.1,44.6715417 107.986667,42.633625 107.986667,40.383625" id="Fill-22"/>
            <path d="M60.2775,75.6957083 C60.24,75.6957083 60.2016667,75.694875 60.1633333,75.6919583 C59.3116667,75.6402917 58.6079167,75.008625 58.4633333,74.1669583 L52.7716667,41.016125 L44.1491667,57.002375 C43.7720833,57.702375 42.9833333,58.079875 42.2079167,57.9407083 C41.4254167,57.801125 40.8220833,57.1757083 40.7083333,56.389875 L37.0479167,30.8057083 L30.3508333,45.8477917 C30.055,46.5119583 29.3966667,46.9394583 28.67,46.9394583 L2.64083333,46.9394583 C1.62416667,46.9394583 0.800833333,46.1157083 0.800833333,45.099875 C0.800833333,44.0832083 1.62416667,43.2594583 2.64083333,43.2594583 L27.475,43.2594583 L36.28375,23.473625 C36.6170833,22.7244583 37.4058333,22.287375 38.21875,22.399875 C39.0308333,22.5127917 39.67,23.1490417 39.7866667,23.9615417 L43.5604167,50.3415417 L52.06375,34.576125 C52.43625,33.883625 53.2054167,33.5052917 53.9816667,33.633625 C54.7558333,33.7602917 55.36375,34.364875 55.4966667,35.138625 L60.7683333,65.841125 L79.9791667,2.02570833 C80.1983333,1.29904167 80.8408333,0.781125 81.59625,0.721958333 C82.3545833,0.665708333 83.07,1.07320833 83.3983333,1.75654167 L93.5075,22.7132083 C93.9491667,23.6277917 93.5645833,24.7277917 92.65,25.1694583 C91.7354167,25.6115417 90.6341667,25.2269583 90.1925,24.3115417 L82.1391667,7.61654167 L62.03875,74.386125 C61.8033333,75.167375 61.0845833,75.6957083 60.2775,75.6957083" id="Fill-24"/>
        </g>
    </g>
</svg>