<svg xmlns="http://www.w3.org/2000/svg" xmlns:xlink="http://www.w3.org/1999/xlink" width="75px" height="80px" viewBox="0 0 75 80" version="1.1">
    <!-- Generator: Sketch 46.2 (44496) - http://www.bohemiancoding.com/sketch -->
    <title>Icons / Targets / Target 08</title>
    <desc>Created with Sketch.</desc>
    <defs/>
    <g id="-" stroke="none" stroke-width="1" fill="none" fill-rule="evenodd">
        <g id="Icons-/-Targets-/-Target-08" fill="#FFFFFE">
            <path d="M67.852375,19.1395 L52.166125,34.0615833 C51.5740417,34.65075 51.2702917,35.0845 51.2702917,36.3024167 L51.2702917,78.1240833 C51.2702917,78.6153333 51.6715417,79.017 52.166125,79.017 L68.368625,79.017 C68.8632083,79.017 69.2619583,78.6153333 69.2619583,78.1240833 L69.2619583,19.5149167 C69.2619583,19.022 68.8752917,18.1211667 67.852375,19.1395" id="Fill-22"/>
            <path d="M22.661125,38.5804167 L6.97320833,53.5004167 C6.38320833,54.0908333 6.078625,54.5233333 6.078625,55.74 L6.078625,78.1241667 C6.078625,78.6133333 6.48070833,79.0154167 6.97320833,79.0154167 L23.1777917,79.0154167 C23.6719583,79.0154167 24.071125,78.6133333 24.071125,78.1241667 L24.071125,38.955 C24.071125,38.4604167 23.681125,37.5575 22.661125,38.5804167" id="Fill-24"/>
            <path d="M74.9820833,1.04295833 C74.9875,0.923791667 74.9454167,0.796291667 74.8495833,0.702958333 C74.76625,0.622125 74.6608333,0.584625 74.55875,0.575458333 L74.4729167,0.581291667 L74.3445833,0.588791667 L62.3333333,3.298375 L62.1145833,3.32045833 C62.02875,3.33754167 61.9475,3.38004167 61.8808333,3.443375 C61.70375,3.622125 61.70375,3.91045833 61.8808333,4.089625 L62.01625,4.22545833 L64.7595833,6.96754167 L37.5429167,34.1850417 L24.9725,21.613375 C24.8295833,21.4704583 24.60375,21.4704583 24.4608333,21.613375 L21.0495833,25.0254583 C21.0470833,25.0254583 21.0470833,25.0287917 21.0470833,25.0287917 L0.895833333,45.1762917 C0.75625,45.3187917 0.75625,45.5487917 0.895833333,45.688375 L4.31166667,49.1025417 C4.45125,49.2442083 4.67833333,49.2442083 4.81875,49.1025417 L24.71875,29.207125 L33.84125,38.3300417 C33.8504167,38.3437917 33.855,38.3592083 33.87,38.3729583 L37.2825,41.7812917 C37.4233333,41.924625 37.6508333,41.924625 37.7929167,41.7812917 L68.6833333,10.892125 L71.5641667,13.770875 C71.7404167,13.949625 72.0291667,13.949625 72.2045833,13.770875 C72.28875,13.6867083 72.33,13.583375 72.3354167,13.4750417 L72.3370833,13.4362917 L74.9754167,1.17504167 L74.9820833,1.04295833 Z" id="Fill-26"/>
            <path d="M45.3454583,41.1987917 L37.7554583,48.850875 C37.6117083,48.9700417 37.4012917,48.9667083 37.2667083,48.8329583 L30.390875,41.823375 C29.1317083,40.5687917 28.860875,41.5867083 28.860875,42.0787917 L28.860875,78.1225417 C28.860875,78.613375 29.2562917,79.0150417 29.748375,79.0150417 L45.9562917,79.0150417 C46.447125,79.0150417 46.8475417,78.613375 46.8475417,78.1225417 L46.8475417,41.4817083 C46.8475417,40.9887917 46.4592083,40.0842083 45.3454583,41.1987917" id="Fill-28"/>
        </g>
    </g>
</svg>