<svg xmlns="http://www.w3.org/2000/svg" xmlns:xlink="http://www.w3.org/1999/xlink" width="90px" height="73px" viewBox="0 0 90 73" version="1.1">
    <!-- Generator: Sketch 46.2 (44496) - http://www.bohemiancoding.com/sketch -->
    <title>Icons / Targets / Target 04</title>
    <desc>Created with Sketch.</desc>
    <defs/>
    <g id="-" stroke="none" stroke-width="1" fill="none" fill-rule="evenodd">
        <g id="Icons-/-Targets-/-Target-04" fill="#FFFFFE">
            <polygon id="Fill-22" points="35.3693333 21.268625 7.00391667 4.89029167 7.00391667 57.8740417 35.3693333 66.432375"/>
            <polygon id="Fill-23" points="38.4884583 21.3772917 38.4884583 66.450625 67.0380417 57.8672917 67.0380417 4.891875"/>
            <polygon id="Fill-24" points="83.4262083 56.9343333 82.5932917 56.9343333 85.950375 68.6635 89.3024583 56.9343333 88.469125 56.9343333 89.3024583 56.9343333 89.3024583 9.79433333 88.469125 9.79433333 87.6357917 9.79433333 86.752875 9.79433333 85.082875 9.79433333 84.2595417 9.79433333 83.4262083 9.79433333 82.591625 9.79433333 82.591625 56.9343333"/>
            <polygon id="Fill-25" points="73.1299583 7.16583333 70.0895417 4.76333333 70.0895417 59.3104167 38.572875 69.495 37.114125 69.495 36.8257917 69.495 35.3695417 69.495 3.99245833 60.7295833 3.99245833 4.76333333 0.950375 7.16583333 0.950375 62.8629167 35.2245417 72.35125 36.8257917 72.35125 37.114125 72.35125 38.7145417 72.35125 70.3370417 62.3116667 73.1299583 61.4895833"/>
            <path d="M89.303875,3.54933333 C89.303875,1.69391667 87.8009583,0.19225 85.950125,0.19225 C84.0942917,0.19225 82.5934583,1.69391667 82.5934583,3.54933333 L82.5934583,7.16725 L89.303875,7.16725 L89.303875,3.54933333 Z" id="Fill-26"/>
        </g>
    </g>
</svg>