<svg xmlns="http://www.w3.org/2000/svg" width="19" height="18" viewBox="0 0 19 18" fill="none">
  <path d="M13.5 9C13.5 9.26893 13.3977 9.4983 13.1853 9.70395L7.04966 15.739C6.88446 15.913 6.66421 16 6.41249 16C5.90118 16 5.5 15.6045 5.5 15.0825C5.5 14.8294 5.60226 14.6 5.77532 14.426L11.3053 9L5.77532 3.57401C5.60226 3.39209 5.5 3.16271 5.5 2.9096C5.5 2.39548 5.90118 2 6.41249 2C6.66421 2 6.88446 2.08701 7.04966 2.26102L13.1853 8.29604C13.3977 8.50169 13.4921 8.73107 13.5 9Z" fill="white"/>
</svg>