<svg xmlns="http://www.w3.org/2000/svg" xmlns:xlink="http://www.w3.org/1999/xlink" width="32px" height="32px" viewBox="0 0 32 32" version="1.1">
    <!-- Generator: Sketch 46.2 (44496) - http://www.bohemiancoding.com/sketch -->
    <title>Icons / News / Photogallery 32x32</title>
    <desc>Created with Sketch.</desc>
    <defs>
        <path d="M14,10 L15,10 C15.5522847,10 16,9.55228475 16,9 L16,9 L16,1 C16,0.44771525 15.5522847,2.38600792e-13 15,2.26929586e-13 L15,2.76445499e-13 L4,2.24265254e-14 L4,2.97539771e-14 C3.44771525,1.71017172e-14 3,0.44771525 3,1 L3,1 L3,2 L13,2 L13,2 C13.5522847,2 14,2.44771525 14,3 L14,10 Z" id="path-1"/>
        <filter x="-15.4%" y="-10.0%" width="130.8%" height="140.0%" filterUnits="objectBoundingBox" id="filter-2">
            <feOffset dx="0" dy="1" in="SourceAlpha" result="shadowOffsetOuter1"/>
            <feGaussianBlur stdDeviation="0.5" in="shadowOffsetOuter1" result="shadowBlurOuter1"/>
            <feColorMatrix values="0 0 0 0 0   0 0 0 0 0   0 0 0 0 0  0 0 0 0.2 0" type="matrix" in="shadowBlurOuter1"/>
        </filter>
        <path d="M1,3 L12,3 L12,3 C12.5522847,3 13,3.44771525 13,4 L13,12 L13,12 C13,12.5522847 12.5522847,13 12,13 L1,13 L1,13 C0.44771525,13 5.11724585e-16,12.5522847 4.4408921e-16,12 L0,4 L0,4 C-6.76353751e-17,3.44771525 0.44771525,3 1,3 Z" id="path-3"/>
        <filter x="-15.4%" y="-10.0%" width="130.8%" height="140.0%" filterUnits="objectBoundingBox" id="filter-4">
            <feOffset dx="0" dy="1" in="SourceAlpha" result="shadowOffsetOuter1"/>
            <feGaussianBlur stdDeviation="0.5" in="shadowOffsetOuter1" result="shadowBlurOuter1"/>
            <feColorMatrix values="0 0 0 0 0   0 0 0 0 0   0 0 0 0 0  0 0 0 0.2 0" type="matrix" in="shadowBlurOuter1"/>
        </filter>
    </defs>
    <g id="-" stroke="none" stroke-width="1" fill="none" fill-rule="evenodd">
        <g id="Icons-/-News-/-Photogallery-32x32">
            <rect id="Rectangle" fill-opacity="0.2" fill="#000000" x="0" y="0" width="32" height="32"/>
            <g id="Group" transform="translate(8.000000, 9.000000)">
                <g id="Combined-Shape">
                    <use fill="black" fill-opacity="1" filter="url(#filter-2)" xlink:href="#path-1"/>
                    <use fill="#FFFFFF" fill-rule="evenodd" xlink:href="#path-1"/>
                </g>
                <g id="Rectangle-14">
                    <use fill="black" fill-opacity="1" filter="url(#filter-4)" xlink:href="#path-3"/>
                    <use fill="#FFFFFF" fill-rule="evenodd" xlink:href="#path-3"/>
                </g>
            </g>
        </g>
    </g>
</svg>