<svg xmlns="http://www.w3.org/2000/svg" width="745" height="747" viewBox="0 0 745 747"><title>Elements / Targets / Icon Logo 07</title><g fill="none" fill-rule="evenodd"><path fill="#F1C66A" d="M212.501 258H106l106.501 105.884zm149.889-44.99L256 106v107.01zm-135.39.571h16.977V125H227zm108.714-102.282h29.734v30.486l-31.707 31.979 37.87 37.735 37.659-37.735-33.1-33.027v-29.438h31.612l31.98 32.082 37.735-37.683-37.735-37.494-33.026 33.266H376.17V70.762l33.17-33.026L371.676 0l-37.971 37.736 31.743 31.979v31.755H336.76l-33.025-33.24L266 105.858l37.735 37.577zM498 213.581h16.083V125H498zm33 31.396h85.777V228H531zM531 258v105.225L636.839 258zm-47.086-44.467V107L378 213.533zM109.682 406.737v-28.949h32.101l31.98 31.837 37.734-37.805-37.734-37.758-33.026 33.002h-31.055v-30.303l33.414-33.026L105.555 266l-37.709 37.735 32.007 31.979v31.35H70.76l-33.025-33.038L0 371.755l37.735 37.874 31.98-31.841h30.138v29.996l-31.908 31.98 37.769 37.735 37.363-37.735zM125 244.977h87.811V228H125zm406 271.107h85.777V500H531zm-33 102.71h16.083V532H498zm176.784-240.16l31.979 31.915 37.734-37.767-37.734-37.816-33.025 32.945h-31.125v-30.152l33.448-33.025L638.538 267l-37.734 37.734 31.98 31.98v31.197h-29.022l-33.027-32.961L533 372.717l37.735 37.816 31.979-31.899h30.07v30.149l-31.875 31.979 37.787 37.735 37.337-37.735-33.42-33.024v-29.104zM531 486.225h105.839L531 381zM379 532l104.722 105.333V532zm-153 86.794h16.977V532H226zM212.501 380L106 485.885h106.501zM123 516.084h89.597V500H123zM256 532v105.811L361.197 532zm149.736 104.095h-30.413v-30.333l33.092-33.026-37.7-37.736-37.914 37.736 31.8 31.98v31.379H335.76l-33.026-33.053L265 640.763l37.734 37.883 31.981-31.829h29.886v29.967l-31.783 31.98 37.832 37.735 37.715-37.735-33.042-33.026v-28.921h31.459l31.981 31.825 37.735-37.814-37.735-37.748z"/><path fill="#F2B037" d="M222 523.328h299.326V224H222z"/><path d="M388.012 435.991c-14.248 0-25.798-11.547-25.798-25.796 0-11.583 7.624-21.376 18.131-24.643v9.607c-5.469 2.792-9.223 8.47-9.223 15.036 0 9.327 7.56 16.888 16.89 16.888 9.33 0 16.888-7.56 16.888-16.888 0-6.586-3.77-12.272-9.266-15.059v-9.594c10.528 3.25 18.18 13.054 18.18 24.653 0 14.25-11.55 25.796-25.802 25.796zm-3.68-55.422c0-1.652 1.656-3.469 3.692-3.469 2.03 0 3.674 1.817 3.674 3.47v17.028c0 1.643-1.644 3.442-3.674 3.442-2.036 0-3.693-1.799-3.693-3.442V380.57zm3.671-19.597c-27.392 0-49.597 22.208-49.597 49.602 0 27.405 22.205 49.608 49.597 49.608 27.39 0 49.598-22.203 49.598-49.608 0-27.394-22.208-49.602-49.598-49.602zm-56.937 49.169c0-2.25-1.993-4.07-3.813-4.07h-21.72c-1.832 0-3.842 1.82-3.842 4.07 0 2.255 2.01 4.086 3.842 4.086h21.72c1.82 0 3.813-1.83 3.813-4.086m143.274 0c0-2.25-1.993-4.07-3.813-4.07h-21.72c-1.83 0-3.84 1.82-3.84 4.07 0 2.255 2.01 4.086 3.84 4.086h21.72c1.82 0 3.813-1.83 3.813-4.086m-86.316 86.331c2.245 0 4.07-1.993 4.07-3.813V470.94c0-1.83-1.825-3.843-4.07-3.843-2.253 0-4.09 2.014-4.09 3.843v21.718c0 1.82 1.837 3.813 4.09 3.813m74.917-43.449c1.115-1.95.291-4.524-1.287-5.427l-18.85-10.788c-1.59-.91-4.243-.328-5.358 1.625-1.118 1.953-.285 4.546 1.305 5.454l18.851 10.787c1.58.904 4.216.304 5.34-1.651m-117.797 32.053c1.949 1.114 4.52.292 5.423-1.287l10.789-18.852c.91-1.589.327-4.242-1.625-5.357-1.953-1.12-4.547-.285-5.454 1.304l-10.789 18.85c-.903 1.58-.302 4.222 1.656 5.342m85.909-.097c1.949-1.121 2.536-3.758 1.63-5.332l-10.828-18.832c-.915-1.586-3.494-2.42-5.447-1.3-1.954 1.122-2.54 3.779-1.621 5.37l10.826 18.829c.905 1.576 3.484 2.389 5.44 1.265m-117.866-31.79c1.119 1.948 3.753 2.536 5.33 1.626l18.828-10.826c1.59-.911 2.428-3.494 1.303-5.444-1.12-1.954-3.778-2.538-5.364-1.627l-18.83 10.827c-1.578.905-2.391 3.489-1.267 5.444m74.836-99.99c2.245 0 4.07-1.992 4.07-3.81v-21.723c0-1.833-1.825-3.84-4.07-3.84-2.253 0-4.09 2.007-4.09 3.84v21.723c0 1.818 1.837 3.81 4.09 3.81m-49.434 28.656c1.12-1.953.296-4.521-1.284-5.426l-18.853-10.79c-1.588-.911-4.24-.329-5.356 1.622-1.12 1.957-.284 4.545 1.307 5.457l18.85 10.792c1.579.902 4.218.303 5.337-1.655m77.721-21.127c1.95 1.113 4.519.29 5.424-1.286l10.788-18.853c.911-1.59.328-4.241-1.623-5.358-1.955-1.122-4.547-.283-5.458 1.307l-10.788 18.849c-.903 1.582-.304 4.22 1.656 5.34m-56.678.047c1.949-1.12 2.536-3.755 1.628-5.33l-10.828-18.834c-.916-1.587-3.493-2.419-5.445-1.298-1.957 1.121-2.541 3.78-1.623 5.366l10.824 18.827c.91 1.578 3.486 2.393 5.444 1.27m77.757 20.993c1.12 1.946 3.754 2.532 5.332 1.626l18.826-10.827c1.59-.913 2.428-3.495 1.307-5.445-1.125-1.953-3.78-2.54-5.37-1.626l-18.827 10.827c-1.578.908-2.393 3.493-1.268 5.445M253.375 262.42h17.717l-15.303 58.877h11.378l14.996-57.668v-10.571h-28.788z" fill="#FFFFFE"/><path fill="#F2B037" d="M101 309.722h9.829V299H101zm68 68.002h9.828V367H169zm-68 67.998h9.829V435H101zm-69-67.998h10.722V367H32zM366 42.722h10.722V32H366zm68 68.107h10.722V101H434zm-68 67.999h10.722V169H366zm-67-67.999h10.722V101H299zm335 199.893h9.829V300H634zm67 68.001h9.829V368H701zm-67 66.999h9.829V435H634zm-69-66.999h10.723V368H565zM366 578.722h10.722V568H366zm67 68.001h10.722V636H433zm-67 68h10.722V704H366zm-68-68h9.829V636H298zm317.294-35.263l7.226-7.228 16.275-.16-.158-18.936-18.792-.012-.026 15.889-7.484 7.487-7.226-7.227-.161-16.273-18.936.158L586 603.95l15.889.023 7.487 7.487-7.487 7.484-15.851.063.063 18.843 18.854.077.154-16.282 7.226-7.227 7.484 7.488.063 15.851 18.844-.063.076-18.856-16.282-.151zm-5.918-479.001l-7.487 7.486-15.851.062.063 18.843 18.854.076.154-16.281 7.226-7.227 7.484 7.487.063 15.852 18.844-.062.076-18.856-16.282-.153-7.226-7.227 7.226-7.226 16.275-.159-.158-18.939-18.792-.012-.026 15.891-7.484 7.486-7.226-7.226-.161-16.274-18.936.158L586 124.95l15.889.023zm-477.999 0l-7.486 7.486-15.853.062.062 18.843 18.857.076.152-16.281 7.226-7.227 7.486 7.487.063 15.852 18.842-.062.076-18.856-16.281-.153-7.226-7.227 7.226-7.226 16.274-.159-.157-18.939-18.794-.012-.023 15.891-7.486 7.486-7.226-7.226-.158-16.274-18.939.158L108 124.95l15.891.023zm5.918 479.001l7.226-7.228 16.274-.16-.158-18.936-18.793-.012-.023 15.889-7.486 7.487-7.227-7.227L126.95 585l-18.938.158L108 603.95l15.89.023 7.487 7.487-7.487 7.484-15.852.063.062 18.843 18.856.077.152-16.282 7.227-7.227 7.486 7.488.062 15.851 18.843-.063.076-18.856-16.281-.151zM147 212.227h65.226V147H195.25v48.25H147zm451.226 0V195.25h-48.25V147H533v65.227h17.714zm-1 320.773H532v65.226h16.977v-48.249h48.249zM147 533v16.977h48.25v48.249h16.976V533h-16.235z"/></g></svg>