<svg xmlns="http://www.w3.org/2000/svg" width="745" height="748" viewBox="0 0 745 748"><title>Elements / Targets / Icon Logo 05</title><g fill="none" fill-rule="evenodd"><path fill="#E2665B" d="M212.501 258.672H106l106.501 105.883zm149.89-44.99L256 106.672v107.01zM227 214.253h16.977v-88.581H227zm108.713-102.282h29.735v30.486l-31.708 31.979 37.872 37.735 37.659-37.735-33.101-33.027v-29.438h31.612l31.98 32.082 37.734-37.683-37.734-37.494-33.027 33.266H376.17V71.434l33.17-33.026L371.676.672l-37.973 37.736 31.745 31.979v31.755h-28.689l-33.025-33.24L266 106.53l37.734 37.577zM498 214.253h16.083v-88.581H498zm33 31.396h85.776v-16.977H531zm0 13.023v105.225l105.838-105.225zm-47.087-44.467V107.672L378 214.205zm-374.23 193.203v-28.949h32.1l31.98 31.838 37.735-37.806-37.735-37.757-33.025 33.002h-31.055v-30.303l33.413-33.026-37.541-37.735-37.708 37.735 32.007 31.98v31.349H70.762l-33.025-33.038L0 372.427 37.737 410.3l31.978-31.841h30.139v29.996l-31.908 31.98 37.769 37.735 37.364-37.735zM125 245.649h87.81v-16.977H125zm406 271.106h85.776v-16.083H531zm-33 102.712h16.083v-86.795H498zm176.781-240.162l31.98 31.916 37.736-37.767-37.736-37.816-33.024 32.945h-31.126v-30.152l33.449-33.024-37.523-37.735-37.736 37.735 31.982 31.979v31.197H603.76l-33.027-32.961L533 373.388l37.733 37.816 31.981-31.899h30.069v30.149l-31.877 31.98 37.789 37.736 37.338-37.736-33.422-33.025v-29.104zM531 486.897h105.838L531 381.672zm-152 45.775l104.721 105.334V532.672zm-153 86.795h16.978v-86.795H226zm-13.499-238.795L106 486.556h106.501zM123 516.755h89.597v-16.083H123zm133 15.917v105.812l105.197-105.812zm149.738 104.094h-30.414v-30.332l33.092-33.027-37.701-37.735-37.914 37.735 31.8 31.98v31.379H335.76l-33.025-33.053L265 641.435l37.735 37.882 31.98-31.829h29.886v29.968l-31.781 31.979 37.83 37.736 37.717-37.736-33.043-33.027v-28.92h31.459l31.98 31.824 37.735-37.813-37.735-37.748z"/><path fill="#DA3F31" d="M222 523.999h299.327V224.672H222z"/><g fill="#FFFFFE"><path d="M382.875 432.406c-22.076 0-40.031-17.961-40.031-40.036 0-22.077 17.955-40.038 40.031-40.038 22.078 0 40.038 17.96 40.038 40.038 0 22.075-17.96 40.036-40.038 40.036m76.891-116.041h-41.53a.535.535 0 0 0-.53.53v13.8c0 .295.246.53.53.53h16.536l-18.362 18.367c-9.248-7.266-20.886-11.615-33.535-11.615-29.989 0-54.394 24.399-54.394 54.393 0 27.615 20.69 50.467 47.375 53.924v15.902h-16.381a.526.526 0 0 0-.537.524v14.793c0 .294.232.527.537.527h16.381v15.65c0 .294.232.528.527.528h14.782a.53.53 0 0 0 .537-.527V478.04h16.378a.523.523 0 0 0 .525-.527V462.72a.524.524 0 0 0-.525-.524h-16.378v-16.161c25.808-4.233 45.565-26.677 45.565-53.665 0-11.641-3.685-22.431-9.935-31.285l18.102-18.104v15.446a.53.53 0 0 0 .532.526h13.8a.534.534 0 0 0 .539-.526v-41.532a.535.535 0 0 0-.539-.53"/><path d="M407.331 375.936h-48.564c-.29 0-.526.215-.526.473v11.757c0 .274.236.481.526.481h48.564c.301 0 .537-.207.537-.48v-11.758c0-.258-.236-.473-.537-.473m0 20.991h-48.564c-.29 0-.526.222-.526.49v11.756c0 .264.236.474.526.474h48.564c.301 0 .537-.21.537-.474v-11.756c0-.268-.236-.49-.537-.49M268.182 274.842c-4.47 0-7.75 1.587-9.538 4.67h-.103v-16.795h19.48v-9.24h-29.808v37.963h10.328v-1.498c0-3.973 1.794-6.16 4.97-6.16 3.48 0 4.874 2.39 4.874 6.068v16.295c0 3.58-1.294 6.061-4.773 6.061-3.878 0-5.264-2.583-5.264-6.556v-8.448h-10.342v7.652c0 10.234 4.075 16.793 15.606 16.793 11.427 0 16.095-6.06 16.095-15.403v-16.496c0-10.633-5.461-14.906-11.525-14.906"/></g><path fill="#DA3F31" d="M101 310.394h9.828v-10.722H101zm68 68.001h9.829v-10.723H169zm-68 67.999h9.828v-10.722H101zm-69-67.999h10.722v-10.723H32zM366 44.394h10.724V33.672H366zm68 67.107h10.721v-9.829H434zm-68 68h10.724v-9.829H366zm-67-68h10.721v-9.829H299zm335 199.894h9.829v-10.723H634zm68 67.999h9.827v-10.722H702zm-68 67.001h9.829v-10.723H634zm-69-67.001h10.722v-10.722H565zm-199 200h10.722v-10.722H366zm67 68h10.723v-10.722H433zm-67 68h10.722v-10.722H366zm-68-68h9.829v-10.722H298zm311.378-514.263l-7.488 7.485-15.85.064.063 18.842 18.853.077.153-16.282 7.228-7.226 7.484 7.486.064 15.852 18.843-.063.077-18.855-16.283-.153-7.227-7.227 7.227-7.226 16.274-.159-.158-18.939-18.791-.012-.026 15.892-7.484 7.485-7.228-7.226-.159-16.274-18.936.158-.014 18.793 15.89.022zm-478.001 0l-7.487 7.485-15.851.064.062 18.842 18.856.077.152-16.282 7.229-7.226 7.482 7.486.065 15.852 18.841-.063.077-18.855-16.281-.153-7.226-7.227 7.226-7.226 16.274-.159-.158-18.939-18.792-.012-.026 15.892-7.482 7.485-7.229-7.226-.159-16.274-18.938.158-.012 18.793 15.89.022zm4.918 478.328l7.226-7.227 16.274-.16-.158-18.937-18.792-.011-.024 15.89-7.485 7.486-7.227-7.227L125.95 585l-18.938.158-.012 18.793 15.89.021 7.487 7.487-7.487 7.485-15.852.063.063 18.842 18.856.077.152-16.283 7.227-7.226 7.485 7.489.063 15.851 18.842-.063.076-18.857-16.281-.151zm478.999.001l7.226-7.228 16.275-.16-.158-18.936-18.792-.012-.026 15.889-7.484 7.487-7.226-7.227-.161-16.273-18.936.158L586 603.95l15.889.023 7.487 7.487-7.487 7.484-15.851.063.063 18.843 18.854.077.154-16.282 7.226-7.227 7.484 7.488.063 15.851 18.844-.063.076-18.856-16.282-.151zM147 212.899h65.226v-65.227h-16.977v48.249H147zm451.227 0v-16.978h-48.25v-48.249H533v65.227h17.714zM147 533.672v16.977h48.249v48.249h16.977v-65.226H195.99z"/></g></svg>