<svg xmlns="http://www.w3.org/2000/svg" width="744" height="747" viewBox="0 0 744 747"><title>Elements / Targets / Icon Logo 06</title><g fill="none" fill-rule="evenodd"><path fill="#65C2CB" d="M212.501 258H106l106.501 105.883zm149.89-44.99L256 106v107.01zM226 213.581h16.976V125H226zm108.714-102.282h29.733v30.486l-31.707 31.979 37.871 37.735 37.66-37.735-33.101-33.027v-29.438h31.611l31.98 32.082 37.735-37.683-37.735-37.494-33.025 33.266H375.17V70.762l33.168-33.026L370.676 0l-37.972 37.736 31.743 31.979v31.755H335.76l-33.025-33.24L265 105.858l37.735 37.577zM498 213.581h16.084V125H498zm33 31.396h85.777V228H531zM531 258v105.225L636.838 258zm-47.084-44.467V107L378 213.533zM109.685 406.736v-28.949h32.1l31.979 31.838 37.734-37.806-37.734-37.757-33.026 33.002h-31.053v-30.303l33.412-33.026L105.556 266l-37.709 37.735 32.009 31.98v31.349H70.763l-33.026-33.038L0 371.755l37.737 37.873 31.981-31.841h30.138v29.996l-31.91 31.98 37.768 37.735 37.365-37.735zM125 244.977h87.81V228H125zm406 271.106h85.777V500H531zm-33 102.712h16.084V532H498zm175.783-240.162l31.979 31.916 37.735-37.767-37.735-37.816-33.024 32.945h-31.125v-30.152l33.446-33.024L637.538 267l-37.735 37.735 31.982 31.979v31.197h-29.024l-33.027-32.961L532 372.716l37.734 37.816 31.98-31.899h30.071v30.149l-31.877 31.98 37.786 37.736 37.338-37.736-33.419-33.025v-29.104zM531 486.225h105.838L531 381zM379 532l104.723 105.334V532zm-154 86.795h16.977V532H225zM212.501 380L106 485.884h106.501zM123 516.083h89.596V500H123zM256 532v105.812L361.196 532zm148.736 104.094h-30.412v-30.332l33.091-33.027L369.714 535l-37.913 37.735 31.801 31.98v31.379h-28.841l-33.026-33.053L264 640.763l37.735 37.882 31.979-31.829h29.888v29.968l-31.782 31.979 37.831 37.736 37.715-37.736-33.042-33.027v-28.92h31.46l31.978 31.824 37.737-37.813-37.737-37.748z"/><path fill="#209FC3" d="M222 523.327h299.327V224H222z"/><path d="M440.386 358.34c-3.243-1.428-7.357-.913-11.305.688-14.854 6.019-24.965 8.185-40.59 3.292-9.834-3.08-19.041-9.53-29.922-5.602-7.222 2.598-13.951 5.076-22.114 5.013l-4.716-24.176h112.039l-3.392 20.786zm-37.975 71.793s-5.44 5.589-14.286 4.982c-8.87.607-14.3-4.982-14.3-4.982-8.97-8.962-5.77-20.11-2.647-25.87 1.928-3.608 15.708-24.301 16.894-26.06v-.14s.02.028.053.066l.047-.066v.14c1.154 1.759 14.956 22.452 16.884 26.06 3.128 5.76 6.315 16.908-2.645 25.87zm46.267-97.385a1.451 1.451 0 0 0-1.083-.473H327.883c-.415 0-.796.17-1.076.473a1.436 1.436 0 0 0-.3 1.133l20.113 121.645a1.405 1.405 0 0 0 1.38 1.169h24.684l1.687 19.813-10.385.014 24.169 24.168 24.228-24.224-10.385.01 1.686-19.781h25.12c.693 0 1.27-.498 1.374-1.193l18.817-121.621a1.433 1.433 0 0 0-.317-1.133zm-189.969-39.537c.194-3.726 1.766-6.082 5.298-6.082 3.824 0 5.298 2.356 5.298 6.676v11.581c0 4.216-1.567 6.671-5.395 6.671-3.732 0-5.201-2.552-5.201-6.67V293.21zm5.201 27.973c11.871 0 16.485-6.48 16.485-16.785v-9.814c0-10.892-4.319-16.386-12.368-16.386-4.71 0-7.552 2.162-9.222 5.4h-.096V269.27c0-4.027 1.275-6.87 5.298-6.87 4.02 0 5.202 2.357 5.202 6.477v4.416h10.205v-3.533c0-9.817-3.239-16.68-15.605-16.68-11.774 0-16.191 7.552-16.191 17.953v32.384c0 10.308 4.514 17.767 16.292 17.767z" fill="#FFFFFE"/><path fill="#209FC3" d="M101 309.722h9.828V299H101zm68 68.001h9.829V367H169zm-68 67.999h9.828V435H101zm-69-67.999h10.722V367H32zM366 43.722h10.722V33H366zm68 67.107h10.724V101H434zm-68 68h10.722V169H366zm-68-68h10.723V101H298zm335 199.894h9.829V300H633zm68 67.999h9.829V368H701zm-68 67.001h9.829V435H633zm-69-67.001h10.722V368H564zm-199 200h10.722V568H365zm68 68h10.722V636H433zm-68 68h10.722V704H365zm-68-68h9.829V636H297zm311.377-514.263l-7.488 7.485-15.85.064.063 18.842 18.854.077.153-16.282 7.227-7.226 7.484 7.486.064 15.852 18.842-.063.077-18.855-16.282-.153-7.228-7.227 7.228-7.226 16.275-.159-.159-18.939-18.791-.012-.026 15.892-7.484 7.485-7.227-7.226-.16-16.274-18.937.158-.012 18.793 15.889.022zm-478.001 0l-7.486 7.485-15.853.064.063 18.842 18.856.077.152-16.282 7.228-7.226 7.484 7.486.064 15.852 18.842-.063.075-18.855-16.281-.153-7.224-7.227 7.224-7.226 16.274-.159-.157-18.939-18.791-.012-.026 15.892-7.484 7.485-7.228-7.226-.157-16.274-18.938.158-.013 18.793 15.89.022zM146 212.227h65.227V147H194.25v48.249H146zm451.227 0v-16.978h-48.25V147H532v65.227h17.713zm-1 320.773H531v65.226h16.978v-48.249h48.249zM146 533v16.977h48.25v48.249h16.977V533h-16.238zm-9.705 78.459l7.226-7.227 16.274-.16-.158-18.937-18.792-.011-.024 15.89-7.485 7.486-7.227-7.227L125.95 585l-18.938.158-.012 18.793 15.89.021 7.487 7.487-7.487 7.485-15.852.063.063 18.842 18.856.077.152-16.283 7.227-7.226 7.485 7.489.063 15.851 18.842-.063.076-18.857-16.281-.151zm478.999.001l7.226-7.228 16.275-.16-.158-18.936-18.792-.012-.026 15.889-7.484 7.487-7.226-7.227-.161-16.273-18.936.158L586 603.95l15.889.023 7.487 7.487-7.487 7.484-15.851.063.063 18.843 18.854.077.154-16.282 7.226-7.227 7.484 7.488.063 15.851 18.844-.063.076-18.856-16.282-.151z"/></g></svg>