<svg xmlns="http://www.w3.org/2000/svg" width="745" height="747" viewBox="0 0 745 747"><title>Elements / Targets / Icon Logo 02</title><g fill="none" fill-rule="evenodd"><path fill="#C69730" d="M609.377 611.459l-7.487 7.486-15.852.062.063 18.843 18.856.076.152-16.281 7.227-7.227 7.486 7.487.062 15.852 18.842-.062.076-18.856-16.281-.153-7.226-7.227 7.226-7.226 16.274-.159-.158-18.939-18.792-.012-.023 15.891-7.486 7.486-7.227-7.226L604.95 585l-18.938.158L586 603.95l15.89.023zm-478.001 0l-7.487 7.486-15.851.062.063 18.843 18.854.076.154-16.281 7.226-7.227 7.484 7.487.063 15.852 18.844-.062.076-18.856-16.282-.153-7.226-7.227 7.226-7.226 16.275-.159-.158-18.939-18.792-.012-.026 15.891-7.484 7.486-7.226-7.226-.161-16.274-18.936.158L108 603.95l15.889.023z"/><path fill="#DCA861" d="M212.501 258H106l106.501 105.883zm150.889-44.99L257 106v107.01zm-136.39.571h16.977V125H227zm108.714-102.282h29.734v30.486l-31.707 31.979 37.871 37.735 37.658-37.735-33.1-33.027v-29.438h31.612l31.98 32.082 37.735-37.683-37.735-37.494-33.025 33.266H376.17V70.762l33.169-33.026L371.676 0l-37.971 37.736 31.743 31.979v31.755h-28.687l-33.026-33.24L266 105.858l37.735 37.577zM499 213.581h16.083V125H499zm33 31.396h85.776V228H532zM532 258v105.225L637.838 258zm-48.086-44.467V107L378 213.533zM109.682 406.736v-28.949h32.101l31.98 31.838 37.734-37.806-37.734-37.757-33.027 33.002h-31.054v-30.303l33.413-33.026L105.555 266l-37.709 37.735 32.007 31.98v31.349H70.76l-33.025-33.038L0 371.755l37.735 37.873 31.98-31.841h30.138v29.996l-31.909 31.98 37.769 37.735 37.365-37.735zM125 244.977h87.81V228H125zm407 271.106h85.776V500H532zm-33 102.712h16.083V532H499zm175.784-240.162l31.979 31.916 37.734-37.767-37.734-37.816-33.024 32.945h-31.126v-30.152l33.448-33.024L638.537 267l-37.734 37.735 31.981 31.979v31.197h-29.022l-33.027-32.961L533 372.716l37.735 37.816 31.979-31.899h30.07v30.149l-31.875 31.98 37.786 37.736 37.339-37.736-33.421-33.025v-29.104zM532 486.225h105.838L532 381zM380 532l104.722 105.334V532zm-154 86.795h16.977V532H226zM212.501 380L106 485.884h106.501zM123 516.083h89.597V500H123zM257 532v105.812L362.197 532zm148.736 104.094h-30.413v-30.332l33.093-33.027L370.715 535l-37.914 37.735 31.8 31.98v31.379H335.76l-33.025-33.053L265 640.763l37.735 37.882 31.98-31.829h29.886v29.968l-31.782 31.979 37.832 37.736 37.714-37.736-33.042-33.027v-28.92h31.461l31.979 31.824 37.735-37.813-37.735-37.748z"/><path fill="#C69730" d="M223 523.327h299.327V224H223z"/><path d="M344.101 484.35v4.749c-.004.033-.018.073-.018.107 0 .04.014.079.018.114a2.231 2.231 0 0 0 2.191 2.132c.014 0 .026.008.042.008.017 0 .038-.008.056-.008h55.702c.016 0 .031.008.05.008.014 0 .032-.008.047-.008a2.243 2.243 0 0 0 2.198-2.23c0-.003.006-.007.006-.016 0 0-.006-.008-.006-.017v-5.373c31.356-10.278 54.846-35.694 60.012-66.667.014-.065.022-.126.032-.184.02-.11.032-.206.032-.311a2.247 2.247 0 0 0-2.252-2.252H284.676a2.249 2.249 0 0 0-2.257 2.252l.115 1.012c5.426 31.268 29.564 56.824 61.567 66.685m60.233-145.722c-.731 1.042-17.884 25.735.384 45.703 8.378 9.165 7.65 17.25 5.258 22.713h11.718c2.372-8.063 1.393-18.176-8.118-28.571-13.461-14.714.172-34.603.376-34.91 1.608-2.268.745-5.193-1.901-6.557-2.658-1.357-6.102-.632-7.717 1.622m-29.674 68.416h11.72c2.37-8.066 1.387-18.176-8.126-28.571-13.463-14.716.157-34.594.373-34.92 1.598-2.26.75-5.178-1.905-6.548-2.648-1.351-6.1-.633-7.706 1.624-.735 1.036-17.903 25.734.38 45.702 8.378 9.167 7.649 17.256 5.264 22.713m-40.97-68.416c-.742 1.042-17.894 25.735.377 45.703 8.382 9.169 7.657 17.255 5.27 22.713h11.719c2.369-8.061 1.389-18.174-8.132-28.571-13.463-14.714.168-34.603.385-34.917 1.59-2.261.743-5.186-1.916-6.55-2.647-1.365-6.097-.635-7.703 1.622m-59.444-25.582h-18.78v-3.213c0-5.321 1.91-7.33 4.82-10.444l7.329-7.73c5.924-6.327 7.23-10.343 7.23-17.177v-6.627c0-9.737-4.72-14.36-14.962-14.36-10.04 0-15.163 5.324-15.163 14.864v8.23h10.446v-8.534c0-4.113 2.008-5.323 4.419-5.323 2.205 0 4.115.906 4.115 5.123v5.624c0 5.627-.504 7.837-4.217 11.75l-6.431 6.829c-6.221 6.63-8.532 11.049-8.532 17.775v12.553h29.726v-9.34z" fill="#FFFFFE"/><path fill="#C69730" d="M101 309.722h9.829V299H101zm68 68.001h9.829V367H169zm-68 67.999h9.829V435H101zm-68-67.999h10.722V367H33zM367 43.722h10.722V33H367zm68 67.107h10.722V101H435zm-68 68h10.722V169H367zm-68-68h10.722V101H299zm335 199.894h9.828V300H634zm0 135h9.828V435H634zm-69-67.001h10.723V368H565zm-199 200h10.722V568H366zm68 68h10.722V636H434zm-136 0h9.829V636H298zm311.376-514.263l-7.487 7.485-15.851.064.063 18.842 18.855.077.153-16.282 7.226-7.226 7.484 7.486.064 15.852 18.842-.063.078-18.855-16.283-.153-7.226-7.227 7.226-7.226 16.276-.159-.16-18.939-18.791-.012-.026 15.892-7.484 7.485-7.226-7.226-.161-16.274-18.936.158-.012 18.793 15.889.022zm-477.999 0l-7.486 7.485-15.852.064.062 18.842 18.856.077.152-16.282 7.226-7.226 7.487 7.486.062 15.852 18.842-.063.077-18.855-16.282-.153-7.225-7.227 7.225-7.226 16.275-.159-.158-18.939-18.793-.012-.023 15.892-7.487 7.485-7.226-7.226-.158-16.274-18.939.158-.012 18.793 15.891.022zM147 212.227h65.227V147H195.25v48.249H147zm451.226 0v-16.978h-48.25V147H533v65.227h17.714zM597.227 533H532v65.226h16.977v-48.249h48.25zM147 533v16.977h48.25v48.249h16.977V533h-16.236z"/></g></svg>