<svg xmlns="http://www.w3.org/2000/svg" width="744" height="747" viewBox="0 0 744 747"><title>Elements / Targets / Icon Logo 01</title><g fill="none" fill-rule="evenodd"><path fill="#E15B7D" d="M212.501 258H106l106.501 105.883zm149.889-44.99L256 106v107.01zm-136.39.571h16.977V125H226zm108.714-102.282h29.734v30.486l-31.707 31.979 37.87 37.735 37.66-37.735-33.101-33.027v-29.438h31.612l31.98 32.082 37.735-37.683-37.735-37.494-33.026 33.266H375.17V70.762l33.169-33.026L370.676 0l-37.972 37.736 31.744 31.979v31.755H335.76l-33.025-33.24L265 105.858l37.735 37.577zM498 213.581h16.083V125H498zm33 31.396h85.777V228H531zM531 258v105.225L636.838 258zm-47.085-44.467V107L378 213.533zM109.682 406.736v-28.949h32.101l31.98 31.838 37.733-37.806-37.733-37.757-33.026 33.002h-31.055v-30.303l33.413-33.026L105.555 266l-37.708 37.735 32.006 31.98v31.349H70.76l-33.025-33.038L0 371.755l37.735 37.873 31.98-31.841h30.138v29.996l-31.909 31.98 37.77 37.735 37.363-37.735zM125 244.977h87.81V228H125zm406 271.106h85.777V500H531zm-33 102.712h16.083V532H498zm175.783-240.162l31.979 31.916 37.735-37.767-37.735-37.816-33.025 32.945h-31.125v-30.152l33.448-33.024L637.537 267l-37.734 37.735 31.98 31.979v31.197h-29.022l-33.027-32.961L532 372.716l37.734 37.816 31.98-31.899h30.069v30.149l-31.875 31.98 37.787 37.736 37.338-37.736-33.421-33.025v-29.104zM531 486.225h105.838L531 381zM379 532l104.722 105.334V532zm-153 86.795h16.977V532H226zM212.501 380L106 485.884h106.501zM123 516.083h89.597V500H123zM256 532v105.812L361.197 532zm148.737 104.094h-30.413v-30.332l33.093-33.027L369.716 535l-37.915 37.735 31.8 31.98v31.379h-28.84l-33.025-33.053L264 640.763l37.736 37.882 31.979-31.829h29.886v29.968l-31.782 31.979 37.832 37.736 37.715-37.736-33.042-33.027v-28.92h31.46l31.979 31.824 37.735-37.813-37.735-37.748z"/><path fill="#CC2F50" d="M222 523.327h299.326V224H222z"/><g fill="#FFFFFE"><path d="M468.086 389.062c0-5.244 4.252-9.49 9.49-9.49 5.234 0 9.474 4.246 9.474 9.49 0 5.239-4.24 9.488-9.473 9.488-5.24 0-9.491-4.25-9.491-9.488m-209.409 0c0-5.244 4.253-9.49 9.493-9.49 5.23 0 9.47 4.246 9.47 9.49 0 5.239-4.24 9.488-9.47 9.488-5.24 0-9.493-4.25-9.493-9.488m229.973 13.146c6.436.581 11.481 5.995 11.481 12.599v26.295a3.682 3.682 0 0 1-3.674 3.676 3.678 3.678 0 0 1-3.68-3.676v-22.585c0-.846-.244-1.994-1.795-1.994-1.069 0-1.292 1.135-1.332 1.858v67.693a5.282 5.282 0 0 1-5.279 5.282c-2.927 0-5.295-2.373-5.295-5.282v-39.009c-.014-.43-.158-1.549-1.5-1.549h-.004c-1.348 0-1.513 1.119-1.527 1.549v39.009a5.283 5.283 0 0 1-10.564 0v-67.693c-.035-.723-.266-1.858-1.329-1.858-1.558 0-1.793 1.148-1.793 1.994v22.585a3.675 3.675 0 1 1-7.352 0v-26.295c0-6.604 5.05-12.018 11.495-12.599.21-.027.442-.059.695-.059h20.731c.273 0 .495.032.722.059m-76.976-8.164c0-4.961-4.01-8.992-8.973-8.992-4.968 0-8.99 4.03-8.99 8.992a8.984 8.984 0 0 0 8.99 8.985c4.963 0 8.973-4.021 8.973-8.985m-27.076 20.348l-7.468 24.31s-1.332 4.456 2.451 5.568c3.761 1.116 4.902-3.236 4.902-3.236l6.021-20.289s.328-1.56 1.5-1.222c1.176.335.735 2.005.735 2.005l-10.479 38.02h9.744v27.234c0 2.574 2.1 4.672 4.686 4.672a4.674 4.674 0 0 0 4.672-4.672v-27.234h2.658v27.234a4.676 4.676 0 0 0 4.68 4.672 4.68 4.68 0 0 0 4.686-4.672v-27.234h9.742l-10.472-38.02s-.44-1.67.73-2.005c1.174-.339 1.5 1.222 1.5 1.222l6.021 20.29s1.145 4.351 4.9 3.235c3.79-1.112 2.453-5.568 2.453-5.568l-7.469-24.31s-2.668-7.027-8.576-7.027H393.18c-5.908 0-8.582 7.027-8.582 7.027m-26.726-20.348c0-4.961-4.017-8.992-8.979-8.992-4.964 0-8.982 4.03-8.982 8.992a8.98 8.98 0 0 0 8.982 8.985c4.962 0 8.98-4.021 8.98-8.985m-27.08 20.348l-7.464 24.31s-1.335 4.456 2.448 5.568c3.759 1.116 4.902-3.236 4.902-3.236l6.02-20.289s.327-1.56 1.501-1.222c1.175.335.731 2.005.731 2.005l-10.477 38.02h9.746v27.234c0 2.574 2.104 4.672 4.683 4.672a4.675 4.675 0 0 0 4.677-4.672v-27.234h2.661v27.234a4.67 4.67 0 0 0 4.677 4.672 4.676 4.676 0 0 0 4.683-4.672v-27.234h9.746l-10.471-38.02s-.445-1.67.725-2.005c1.171-.339 1.502 1.222 1.502 1.222l6.017 20.29s1.145 4.351 4.902 3.235c3.788-1.112 2.45-5.568 2.45-5.568l-7.467-24.31s-2.663-7.027-8.574-7.027h-19.036c-5.904 0-8.582 7.027-8.582 7.027m111.049 29.928a7.471 7.471 0 0 0 7.474-7.484 7.461 7.461 0 0 0-7.474-7.47 7.465 7.465 0 0 0-7.478 7.47 7.475 7.475 0 0 0 7.478 7.484m-17.926 23.227c-.366.876-.665 2.73 1.089 3.538 2.058.946 3.203-1.044 3.203-1.044l4.066-12.963s.706-.867.706.03v30.514h.02a3.827 3.827 0 0 0 3.835 3.838 3.828 3.828 0 0 0 3.834-3.838V475.58s-.221-1.7 1.149-1.7c1.372 0 1.161 1.7 1.161 1.7v12.042a3.839 3.839 0 0 0 3.843 3.838 3.84 3.84 0 0 0 3.844-3.838v-30.514c0-.897.475-.257.475-.257l3.186 8.876s1.384 3.966 1.81 4.142c1.436.603 3.096-.083 3.705-1.533a2.79 2.79 0 0 0-.305-2.727l.028-.03c-.092-.285-4.762-11.738-5.312-13.345-1.686-4.924-4.753-4.882-7.71-4.963-2.956-.069-4.725 0-4.725 0s-1.887-.076-5.792.04c-3.894.122-5.123 2.12-9.422 13.176-.614 1.593-2.688 6.746-2.716 7.055l.028.005zm-166.837-65.339c-6.434.581-11.485 5.995-11.485 12.599v26.295a3.68 3.68 0 0 0 7.358 0v-22.585c0-.846.246-1.994 1.795-1.994 1.07 0 1.292 1.135 1.337 1.858v67.693a5.279 5.279 0 0 0 5.279 5.282 5.286 5.286 0 0 0 5.283-5.282v-39.009c.022-.43.165-1.549 1.508-1.549h.004c1.347 0 1.512 1.119 1.524 1.549v39.009a5.283 5.283 0 0 0 10.564 0v-67.693c.032-.723.27-1.858 1.333-1.858 1.557 0 1.79 1.148 1.79 1.994v22.585a3.683 3.683 0 0 0 3.68 3.676 3.678 3.678 0 0 0 3.674-3.676v-26.295c0-6.604-5.046-12.018-11.493-12.599-.213-.027-.44-.059-.696-.059h-20.731c-.273 0-.5.032-.724.059"/><path d="M295.227 440.402a2.734 2.734 0 0 0-2.307-1.277 2.725 2.725 0 0 0-2.724 2.716c0 .436.266 1.197.266 1.197l7.538 13.64s.461.942.461 1.8v29.293h.015a3.678 3.678 0 0 0 3.686 3.684 3.671 3.671 0 0 0 3.675-3.684v-11.56s-.208-1.638 1.113-1.638c1.316 0 1.11 1.637 1.11 1.637v11.561a3.682 3.682 0 0 0 3.688 3.684 3.685 3.685 0 0 0 3.691-3.684v-29.293c0-.858.456-1.8.456-1.8l6.968-12.592s.853-1.809.853-2.245a2.723 2.723 0 0 0-2.726-2.716c-.987 0-1.829.511-2.305 1.277l-.032-.016c-.219.188-3.709 6.403-4.86 7.556-1.218 1.227-2.309 1.09-2.309 1.09h-9.059s-1.098.137-2.31-1.09c-1.167-1.153-4.643-7.368-4.866-7.556l-.022.016z"/><path d="M306.95 444.32a7.47 7.47 0 0 0 7.472-7.484 7.46 7.46 0 0 0-7.472-7.47 7.462 7.462 0 0 0-7.474 7.47 7.472 7.472 0 0 0 7.474 7.484m.012 10.495l8.45 6.164 4.016 14.786h-24.942l4.025-14.786zm-54.926-184.171h.1v52.888h11.615V254.44h-9.274l-10.696 12.536V279.1h.102z"/></g><path fill="#CC2F50" d="M101 309.722h9.829V299H101zm68 68.001h9.829V367H169zm-68 67.999h9.829V435H101zm-69-67.999h10.723V367H32zM366 43.722h10.722V33H366zm68 67.107h10.722V101H434zm-68 68h10.722V169H366zm-68-68h10.722V101H298zm335 199.894h9.829V300H633zm68 67.999h9.829V368H701zm-68 67.001h9.829V435H633zm-69-67.001h10.722V368H564zm-199 200h10.722V568H365zm68 68h10.722V636H433zm-68 68h10.722V704H365zm-68-68h9.829V636H297zm311.376-514.263l-7.486 7.485-15.852.064.063 18.842 18.855.077.153-16.282 7.226-7.226 7.485 7.486.063 15.852 18.843-.063.076-18.855-16.282-.153-7.226-7.227 7.226-7.226 16.274-.159-.157-18.939-18.792-.012-.025 15.892-7.485 7.485-7.226-7.226-.16-16.274-18.937.158-.012 18.793 15.89.022zm-477.999 0l-7.487 7.485-15.852.064.063 18.842 18.856.077.152-16.282 7.226-7.226 7.486 7.486.063 15.852 18.842-.063.076-18.855-16.281-.153-7.226-7.227 7.226-7.226 16.274-.159-.158-18.939-18.792-.012-.024 15.892-7.486 7.485-7.226-7.226L125.95 106l-18.938.158-.012 18.793 15.89.022zm5.918 479l7.226-7.227 16.274-.16-.158-18.937-18.792-.011-.024 15.89-7.485 7.486-7.227-7.227L125.95 585l-18.938.158-.012 18.793 15.89.021 7.487 7.487-7.487 7.485-15.852.063.063 18.842 18.856.077.152-16.283 7.227-7.226 7.485 7.489.063 15.851 18.842-.063.076-18.857-16.281-.151zm478.999.001l7.226-7.228 16.275-.16-.158-18.936-18.792-.012-.026 15.889-7.484 7.487-7.226-7.227-.161-16.273-18.936.158L586 603.95l15.889.023 7.487 7.487-7.487 7.484-15.851.063.063 18.843 18.854.077.154-16.282 7.226-7.227 7.484 7.488.063 15.851 18.844-.063.076-18.856-16.282-.151zM146 212.227h65.226V147H194.25v48.249H146zm451.226 0v-16.978h-48.25V147H532v65.227h17.714zm-1 320.773H531v65.226h16.977v-48.249h48.249zM146 533v16.977h48.25v48.249h16.976V533h-16.235z"/></g></svg>