<svg xmlns="http://www.w3.org/2000/svg" width="745" height="748" viewBox="0 0 745 748"><title>Elements / Targets / Icon Logo 03</title><g fill="none" fill-rule="evenodd"><path fill="#EFEFEA" d="M446.756 318.657l-17.535 17.529-37.128.15.143 44.13 44.164.179.366-38.133 16.925-16.929 17.537 17.543.144 37.127 44.135-.144.18-44.171-38.135-.358-16.933-16.923 16.933-16.932 38.115-.373-.37-44.362-44.017-.026-.052 37.22-17.537 17.536-16.925-16.928-.378-38.12-44.357.372-.031 44.02 37.221.056z"/><path fill="#62B074" d="M212.501 258.672H106l106.501 105.883zm149.889-44.99L256 106.672v107.01zm-135.39.571h16.977v-88.581H227zm108.715-102.282h29.733v30.486l-31.706 31.979 37.87 37.735 37.66-37.735-33.101-33.027v-29.438h31.611l31.981 32.082 37.734-37.683-37.734-37.494-33.026 33.266h-30.566V71.434l33.169-33.026L371.677.672l-37.972 37.736 31.743 31.979v31.755h-28.687l-33.025-33.24L266 106.53l37.736 37.577zM498 214.253h16.084v-88.581H498zm33 31.396h85.777v-16.977H531zm0 13.023v105.225l105.839-105.225zm-47.086-44.467V107.672L378 214.205zM109.682 407.408v-28.949h32.101l31.979 31.838 37.734-37.806-37.734-37.757-33.026 33.002h-31.054v-30.303l33.413-33.026-37.54-37.735-37.709 37.735 32.007 31.98v31.349H70.76l-33.025-33.038L0 372.427 37.735 410.3l31.98-31.841h30.138v29.996l-31.908 31.98 37.768 37.735 37.365-37.735zM125 245.649h87.81v-16.977H125zm406 271.106h85.777v-16.083H531zm-33 102.712h16.084v-86.795H498zm176.782-240.162l31.98 31.916 37.735-37.767-37.735-37.816-33.025 32.945h-31.125v-30.152l33.449-33.024-37.523-37.735-37.735 37.735 31.981 31.979v31.197h-29.023l-33.026-32.961L533 373.388l37.735 37.816 31.979-31.899h30.07v30.149l-31.876 31.98 37.787 37.736 37.338-37.736-33.421-33.025v-29.104zM531 486.897h105.839L531 381.672zm-152 45.775l104.722 105.334V532.672zm-153 86.795h16.977v-86.795H226zm-13.499-238.795L106 486.556h106.501zM123 516.755h89.597v-16.083H123zm133 15.917v105.812l105.197-105.812zm149.737 104.094h-30.413v-30.332l33.093-33.027-37.701-37.735-37.915 37.735 31.8 31.98v31.379h-28.84l-33.025-33.053L265 641.435l37.736 37.882 31.98-31.829h29.885v29.968l-31.783 31.979 37.833 37.736 37.715-37.736-33.042-33.027v-28.92h31.46l31.979 31.824 37.735-37.813-37.735-37.748z"/><path fill="#2D9044" d="M222 523.999h299.328V224.672H222z"/><g fill="#FFFFFE"><path d="M485.561 414.943c0-9.646-6.188-17.466-15.562-17.466-4.687 0-10.342 5.132-13.413 8.291-3.071-3.161-8.349-8.3-13.039-8.3-9.375 0-15.945 7.822-15.945 17.47 0 4.824 1.901 9.19 4.975 12.353l24.03 24.075 23.996-24.048-.018-.019c3.076-3.16 4.976-7.53 4.976-12.356"/><path d="M383.253 490.668a3.943 3.943 0 0 1-3.891-3.278l-12.205-71.09-18.49 34.28a3.951 3.951 0 0 1-4.163 2.014 3.953 3.953 0 0 1-3.216-3.326l-7.85-54.863-14.361 32.256a3.947 3.947 0 0 1-3.604 2.34h-55.818a3.945 3.945 0 1 1 0-7.89h53.255l18.89-42.43a3.947 3.947 0 0 1 7.512 1.047l8.092 56.57 18.236-33.808a3.935 3.935 0 0 1 4.112-2.021 3.942 3.942 0 0 1 3.248 3.227l11.305 65.84 41.197-136.848a3.943 3.943 0 0 1 3.468-2.795 3.95 3.95 0 0 1 3.864 2.217l21.678 44.94a3.947 3.947 0 0 1-7.11 3.428l-17.268-35.801L387.03 487.86a3.947 3.947 0 0 1-3.777 2.808M259.072 323.603c11.728 0 16.822-6.221 16.822-15.802v-10.192c0-6.321-2.752-10.401-8.564-11.725 4.792-1.526 7.953-5.404 7.953-11.212v-6.017c0-9.784-4.69-15.8-15.393-15.8-12.033 0-16.213 7.133-16.213 17.329v6.115h10.602v-7.032c0-4.282 1.33-6.727 5-6.727 3.671 0 4.99 2.445 4.99 6.217v7.443c0 3.67-2.445 5.604-6.214 5.604h-4.388v8.874h4.897c4.075 0 5.704 1.934 5.704 5.604V307.7c0 3.668-1.629 6.22-5.196 6.22-3.976 0-5.405-2.652-5.405-6.73v-9.887h-10.595v9.07c0 10.502 4.175 17.23 16 17.23"/></g><path fill="#2D9044" d="M101 310.394h9.828v-10.722H101zm68 68.001h9.829v-10.723H169zm-68 67.999h9.828v-10.722H101zm-69-67.999h10.722v-10.723H32zM366 44.394h10.722V33.672H366zm68 67.107h10.722v-9.829H434zm-68 68h10.722v-9.829H366zm-68-68h10.723v-9.829H298zm336 199.894h9.829v-10.723H634zm67 67.999h9.828v-10.722H701zm-67 67.001h9.829v-10.723H634zm-69-67.001h10.722v-10.722H565zm-200 200h10.722v-10.722H365zm68 68h10.722v-10.722H433zm-68 68h10.722v-10.722H365zm-67-68h9.829v-10.722H298zm311.376-514.263l-7.486 7.485-15.852.064.064 18.842 18.854.077.153-16.282 7.227-7.226 7.484 7.486.064 15.852 18.842-.063.077-18.855-16.282-.153-7.227-7.227 7.227-7.226 16.275-.159-.159-18.939-18.791-.012-.026 15.892-7.484 7.485-7.227-7.226-.16-16.274-18.936.158-.013 18.793 15.89.022zm-478.999 0l-7.485 7.485-15.852.064.063 18.842 18.855.077.151-16.282 7.228-7.226 7.486 7.486.063 15.852 18.841-.063.077-18.855-16.281-.153-7.227-7.227 7.227-7.226 16.273-.159-.158-18.939-18.791-.012-.024 15.892-7.486 7.485-7.228-7.226-.157-16.274-18.939.158-.013 18.793 15.892.022zm5.918 478.328l7.226-7.227 16.274-.16-.158-18.937-18.792-.011-.024 15.89-7.485 7.486-7.227-7.227L125.95 585l-18.938.158-.012 18.793 15.89.021 7.487 7.487-7.487 7.485-15.852.063.063 18.842 18.856.077.152-16.283 7.227-7.226 7.485 7.489.063 15.851 18.842-.063.076-18.857-16.281-.151zm478.999.001l7.226-7.228 16.275-.16-.158-18.936-18.792-.012-.026 15.889-7.484 7.487-7.226-7.227-.161-16.273-18.936.158L586 603.95l15.889.023 7.487 7.487-7.487 7.484-15.851.063.063 18.843 18.854.077.154-16.282 7.226-7.227 7.484 7.488.063 15.851 18.844-.063.076-18.856-16.282-.151zM147 212.899h65.227v-65.227H195.25v48.249H147zm451.226 0v-16.978h-48.249v-48.249H533v65.227h17.714zm-.999 320.773H532v65.226h16.977v-48.249h48.25zm-450.227 0v16.977h48.25v48.249h16.977v-65.226H195.99z"/></g></svg>