<svg xmlns="http://www.w3.org/2000/svg" width="744" height="747" viewBox="0 0 744 747"><title>Elements / Targets / Icon Logo 04</title><g fill="none" fill-rule="evenodd"><path fill="#EFEFEA" d="M203 300.564l37.221.056 17.535 17.537-17.535 17.53-37.128.149.143 44.13 44.164.179.366-38.133 16.925-16.929 17.538 17.543.143 37.127 44.134-.144.181-44.17-38.136-.359-16.932-16.923 16.932-16.932 38.117-.373-.371-44.362-44.018-.026-.05 37.221-17.538 17.535-16.925-16.927-.377-38.121-44.358.372z"/><path fill="#BD5C70" d="M212.504 258.172H106l106.504 105.883zm149.885-44.99L256 106.172v107.01zM226 213.753h16.978v-88.581H226zm108.714-102.282h29.734v30.486l-31.705 31.979 37.868 37.735 37.66-37.735-33.101-33.027v-29.438h31.612l31.98 32.082 37.735-37.683-37.735-37.494-33.025 33.266H375.17V70.934l33.17-33.026L370.677.172l-37.971 37.736 31.742 31.979v31.755h-28.687l-33.026-33.24L265 106.03l37.735 37.577zM498 213.753h16.084v-88.581H498zm33 31.396h85.777v-16.977H531zm0 13.023v105.225l105.837-105.225zm-47.086-44.467V107.172L378 213.705zM109.682 406.908v-28.949h32.102l31.978 31.838 37.735-37.806-37.735-37.757-33.025 33.002h-31.055v-30.303l33.414-33.026-37.542-37.735-37.707 37.735 32.007 31.98v31.349H70.76l-33.024-33.038L0 371.927 37.736 409.8l31.979-31.841h30.139v29.996l-31.909 31.98 37.768 37.735 37.365-37.735zM124 245.149h87.81v-16.977H124zm407 271.106h85.777v-16.083H531zm-33 102.712h16.084v-86.795H498zm175.783-240.162l31.979 31.916 37.735-37.767-37.735-37.816-33.025 32.945h-31.125v-30.152l33.449-33.024-37.524-37.735-37.734 37.735 31.98 31.979v31.197h-29.022l-33.027-32.961L532 372.888l37.734 37.816 31.98-31.899h30.069v30.149l-31.876 31.98 37.788 37.736 37.339-37.736-33.422-33.025v-29.104zM531 486.397h105.837L531 381.172zm-152 45.775l104.721 105.334V532.172zm-154 86.795h16.977v-86.795H225zm-12.496-238.795L106 486.056h106.504zM123 516.255h89.598v-16.083H123zm133 15.917v105.812l105.197-105.812zm148.737 104.094h-30.414v-30.332l33.094-33.027-37.701-37.735-37.915 37.735 31.799 31.98v31.379h-28.84l-33.025-33.053L264 640.935l37.735 37.882 31.979-31.829H363.6v29.968l-31.782 31.979 37.833 37.736 37.714-37.736-33.042-33.027v-28.92h31.461l31.979 31.824 37.734-37.813-37.734-37.748z"/><path fill="#AF2535" d="M222 523.499h299.326V224.172H222z"/><path fill="#FFFFFE" d="M356.828 384.294L296 349.172v113.62l60.828 18.353zm7.172.229v96.657l61.225-18.407V349.172zm95.789 76.737h-1.786l7.199 25.152 7.188-25.152h-1.788 1.788V360.172H458V461.26z"/><path fill="#FFFFFE" d="M437.784 354.323l-6.521-5.151v116.971l-67.584 21.84h-6.87l-67.286-18.797V349.172L283 354.323v119.438l73.499 20.348h7.482l67.814-21.529 5.989-1.763zm35.204-8.146a7.196 7.196 0 1 0-14.39 0v7.759h14.39v-7.76zm-221.319-44.184l10.286-28.14h.103v28.14h-10.39zm10.188 20.067h10.889v-11.092h4.645v-8.975h-4.645v-48.317h-11.298l-19.864 50.232v7.06h20.273v11.092z"/><path fill="#AF2535" d="M101 309.894h9.829v-10.722H101zm68 68.001h9.828v-10.723H169zm-68 67.999h9.829v-10.722H101zm-69-67.999h10.722v-10.723H32zM366 43.894h10.723V33.172H366zm68 67.107h10.722v-9.829H434zm-68 68h10.723v-9.829H366zm-68-68h10.723v-9.829H298zm335 199.894h9.828v-10.723H633zm68 67.999h9.829v-10.722H701zm-68 67.001h9.828v-10.723H633zm-69-67.001h10.723v-10.722H564zm-199 200h10.722v-10.722H365zm68 68h10.722v-10.722H433zm-68 68h10.722v-10.722H365zm-68-68h9.828v-10.722H297zm311.376-514.263l-7.487 7.485-15.851.064.064 18.842 18.853.077.153-16.282 7.228-7.226 7.484 7.486.063 15.852 18.843-.063.077-18.855-16.282-.153-7.228-7.227 7.228-7.226 16.275-.159-.159-18.939-18.792-.012-.025 15.892-7.484 7.485-7.228-7.226-.159-16.274-18.937.158-.012 18.793 15.889.022zm-477.999 0l-7.486 7.485-15.854.064.065 18.842 18.854.077.153-16.282 7.226-7.226 7.486 7.486.063 15.852 18.842-.063.076-18.855-16.28-.153-7.227-7.227 7.227-7.226 16.273-.159-.158-18.939-18.791-.012-.025 15.892-7.486 7.485-7.226-7.226-.159-16.274-18.938.158-.012 18.793 15.891.022zm5.918 478.828l7.226-7.227 16.274-.16-.158-18.937-18.792-.011-.024 15.89-7.485 7.486-7.227-7.227L125.95 585l-18.938.158-.012 18.793 15.89.021 7.487 7.487-7.487 7.485-15.852.063.063 18.842 18.856.077.152-16.283 7.227-7.226 7.485 7.489.063 15.851 18.842-.063.076-18.857-16.281-.151zm478.999.001l7.226-7.228 16.275-.16-.158-18.936-18.792-.012-.026 15.889-7.484 7.487-7.226-7.227-.161-16.273-18.936.158L586 603.95l15.889.023 7.487 7.487-7.487 7.484-15.851.063.063 18.843 18.854.077.154-16.282 7.226-7.227 7.484 7.488.063 15.851 18.844-.063.076-18.856-16.282-.151zM146 212.399h65.226v-65.227h-16.977v48.249H146zm451.228 0v-16.978h-48.25v-48.249H532v65.227h17.714zm-1.001 320.773H531v65.226h16.977v-48.249h48.25zm-450.227 0v16.977h48.249v48.249h16.977v-65.226H194.99z"/></g></svg>