<svg xmlns="http://www.w3.org/2000/svg" xmlns:xlink="http://www.w3.org/1999/xlink" width="11px" height="10px" viewBox="0 0 11 10" version="1.1">
    <title>Elements / Menu / Arrow Down Copy</title>
    <desc>Created with Sketch.</desc>
    <defs>
        <filter x="-0.2%" y="-1.2%" width="100.5%" height="105.0%" filterUnits="objectBoundingBox" id="filter-1">
            <feOffset dx="0" dy="2" in="SourceAlpha" result="shadowOffsetOuter1"/>
            <feGaussianBlur stdDeviation="1" in="shadowOffsetOuter1" result="shadowBlurOuter1"/>
            <feColorMatrix values="0 0 0 0 0   0 0 0 0 0   0 0 0 0 0  0 0 0 0.2 0" type="matrix" in="shadowBlurOuter1" result="shadowMatrixOuter1"/>
            <feMerge>
                <feMergeNode in="shadowMatrixOuter1"/>
                <feMergeNode in="SourceGraphic"/>
            </feMerge>
        </filter>
    </defs>
    <g id="Page-1" stroke="none" stroke-width="1" fill="none" fill-rule="evenodd">
        <g id="All-News-Page-1280px" transform="translate(-1341.000000, -58.000000)" fill="#000000">
            <g id="HEADER" filter="url(#filter-1)">
                <g id="MENU">
                    <g transform="translate(602.000000, 52.000000)">
                        <g id="Elements-/-Menu-/-Arrow-Down" transform="translate(738.000000, 2.000000)">
                            <path d="M3.90856833,4 L9.09143167,4 L9.09143167,4 C9.64371642,4 10.0914317,4.44771525 10.0914317,5 C10.0914317,5.20340446 10.0294037,5.40197242 9.91362386,5.56920998 L7.32219219,9.31238906 L7.32219219,9.31238906 C7.0078262,9.76647327 6.38487423,9.87973726 5.93079002,9.56537127 C5.83194066,9.49693709 5.74624198,9.41123842 5.67780781,9.31238906 L3.08637614,5.56920998 L3.08637614,5.56920998 C2.77201015,5.11512577 2.88527414,4.4921738 3.33935835,4.17780781 C3.50659591,4.06202796 3.70516387,4 3.90856833,4 Z" id="Rectangle-5"/>
                        </g>
                    </g>
                </g>
            </g>
        </g>
    </g>
</svg>