<svg xmlns="http://www.w3.org/2000/svg" xmlns:xlink="http://www.w3.org/1999/xlink" width="34px" height="29px" viewBox="0 0 34 29" version="1.1">
    <defs/>
    <g id="-" stroke="none" stroke-width="1" fill="none" fill-rule="evenodd">
        <g id="Elements-/-Header-/-Header-1200px" transform="translate(-1116.000000, -66.000000)" fill="#A7ACB1">
            <g id="Group" transform="translate(1018.000000, 66.000000)">
                <path d="M100,-5.7877558e-15 L130,-3.6171695e-16 L130,-4.4408921e-16 C131.104569,1.31511013e-15 132,0.8954305 132,2 L132,3 L132,3 C132,4.1045695 131.104569,5 130,5 L100,5 C98.8954305,5 98,4.1045695 98,3 L98,2 L98,2 C98,0.8954305 98.8954305,-6.0143405e-15 100,-6.21724894e-15 L100,-5.7877558e-15 Z M100,12 L130,12 C131.104569,12 132,12.8954305 132,14 L132,15 C132,16.1045695 131.104569,17 130,17 L100,17 C98.8954305,17 98,16.1045695 98,15 L98,14 L98,14 C98,12.8954305 98.8954305,12 100,12 L100,12 Z M100,24 L130,24 C131.104569,24 132,24.8954305 132,26 L132,27 C132,28.1045695 131.104569,29 130,29 L100,29 L100,29 C98.8954305,29 98,28.1045695 98,27 L98,26 L98,26 C98,24.8954305 98.8954305,24 100,24 L100,24 Z" id="Combined-Shape"/>
            </g>
        </g>
    </g>
</svg>