<svg xmlns="http://www.w3.org/2000/svg" xmlns:xlink="http://www.w3.org/1999/xlink" width="34px" height="29px" viewBox="0 0 22 17" version="1.1">
    <defs/>
    <g id="-" stroke="none" stroke-width="1" fill="none" fill-rule="evenodd">
        <g id="Icons-/-Menu-Close" fill="#A7ACB1">
            <path d="M3.41421356,14.4142136 L17.4142136,0.414213562 L17.4142136,0.414213562 C17.9664983,-0.138071187 18.8619288,-0.138071187 19.4142136,0.414213562 L19.4142136,0.414213562 L19.4142136,0.414213562 C19.9664983,0.966498312 19.9664983,1.86192881 19.4142136,2.41421356 L5.41421356,16.4142136 L5.41421356,16.4142136 C4.86192881,16.9664983 3.96649831,16.9664983 3.41421356,16.4142136 L3.41421356,16.4142136 L3.41421356,16.4142136 C2.86192881,15.8619288 2.86192881,14.9664983 3.41421356,14.4142136 Z" id="Combined-Shape"/>
            <path d="M3.41421356,14.4142136 L17.4142136,0.414213562 L17.4142136,0.414213562 C17.9664983,-0.138071187 18.8619288,-0.138071187 19.4142136,0.414213562 L19.4142136,0.414213562 L19.4142136,0.414213562 C19.9664983,0.966498312 19.9664983,1.86192881 19.4142136,2.41421356 L5.41421356,16.4142136 L5.41421356,16.4142136 C4.86192881,16.9664983 3.96649831,16.9664983 3.41421356,16.4142136 L3.41421356,16.4142136 L3.41421356,16.4142136 C2.86192881,15.8619288 2.86192881,14.9664983 3.41421356,14.4142136 Z" id="Combined-Shape-Copy" transform="translate(11.414214, 8.414214) scale(1, -1) translate(-11.414214, -8.414214) "/>
        </g>
    </g>
</svg>