<?xml version="1.0" encoding="UTF-8"?>
<svg width="16px" height="14px" viewBox="0 0 16 14" version="1.1" xmlns="http://www.w3.org/2000/svg" xmlns:xlink="http://www.w3.org/1999/xlink">
    <!-- Generator: Sketch 46.2 (44496) - http://www.bohemiancoding.com/sketch -->
    <title>Icons/Print</title>
    <desc>Created with Sketch.</desc>
    <defs>
        <path d="M16,14 L17,14 C17.5522847,14 18,13.5522847 18,13 L18,6 C18,5.44771525 17.5522847,5 17,5 L17,5 L3,5 L3,5 C2.44771525,5 2,5.44771525 2,6 L2,6 L2,13 C2,13.5522847 2.44771525,14 3,14 L4,14 L4,10 L16,10 L16,14 Z" id="path-1"></path>
    </defs>
    <g id="Symbols" stroke="none" stroke-width="1" fill="none" fill-rule="evenodd">
        <g id="Elements-/-Buttons-/-Print" transform="translate(-17.000000, -11.000000)">
            <g id="Print">
                <g id="Icons-/-Print" transform="translate(15.000000, 9.000000)">
                    <path d="M5,9 L15,9 L15,3 L5,3 L5,9 Z" id="Rectangle-13" stroke="#000000" stroke-width="2"></path>
                    <g id="Combined-Shape">
                        <use fill="#000000" fill-rule="evenodd" xlink:href="#path-1"></use>
                        <path stroke="#000000" stroke-width="2" d="M17,14 L16,14 L16,13 L17,13 L17,6 L3,6 L3,13 L4,13 L4,14 L3,14 L3,9 L17,9 L17,14 Z"></path>
                    </g>
                    <path d="M5,10 L5,15 L15,15 L15,10 L5,10 Z" id="Rectangle-13" stroke="#000000" stroke-width="2"></path>
                    <rect id="Rectangle-22" fill="#EBEDEF" fill-rule="evenodd" x="6" y="4" width="8" height="3"></rect>
                </g>
            </g>
        </g>
    </g>
</svg>